<svg viewBox="0 0 16 16" strocke="currentColor" fill="currentColor" xmlns="http://www.w3.org/2000/svg">
<path d="M15.1471 3.05649C14.5365 0.854242 12.7003 0.0759297 12.6225 0.0438047C12.3263 -0.0780703 11.987 0.0631484 11.8647 0.359555C11.7426 0.655961 11.8842 0.995086 12.1805 1.11718C12.1944 1.1228 13.5678 1.70552 14.0286 3.36684C14.0998 3.62377 14.3334 3.79227 14.5876 3.79227C14.6389 3.79227 14.6911 3.7853 14.7429 3.77099C15.0519 3.68527 15.2328 3.36546 15.1471 3.05649Z"/>
<path d="M3.30338 0.359565C3.18132 0.0629709 2.84157 -0.0780603 2.54576 0.0438147C2.46779 0.0757522 0.631787 0.854252 0.0211932 3.05669C-0.0643068 3.36547 0.116568 3.68528 0.425537 3.77097C0.476126 3.78502 0.528378 3.79218 0.580881 3.79225C0.835287 3.79206 1.0686 3.62375 1.14001 3.36681C1.59329 1.73103 2.92726 1.1431 2.99035 1.11619C3.28501 0.993158 3.4251 0.655002 3.30338 0.359565Z"/>
<path d="M13.8655 15.0181L12.5499 13.6443C12.328 13.4126 11.9607 13.4048 11.7292 13.6265C11.4978 13.8482 11.4897 14.2156 11.7114 14.4472L13.027 15.821C13.0811 15.8776 13.1462 15.9227 13.2182 15.9535C13.2903 15.9842 13.3678 16 13.4462 16C13.5905 16 13.735 15.9464 13.8476 15.8388C14.079 15.6171 14.0871 15.2497 13.8655 15.0181Z"/>
<path d="M3.43925 13.6265C3.20766 13.405 2.8401 13.4127 2.61857 13.6443L1.30297 15.0181C1.08125 15.2497 1.08919 15.6171 1.32057 15.8388C1.42851 15.9424 1.57239 16.0002 1.722 16C1.87466 16 2.02728 15.94 2.14125 15.821L3.45685 14.4472C3.67857 14.2156 3.67063 13.8482 3.43925 13.6265Z"/>
<path d="M9.75114 7.31303H7.95189V4.54643C7.95189 4.22586 7.69205 3.96602 7.37148 3.96602C7.05092 3.96602 6.79108 4.22586 6.79108 4.54643V7.89344C6.79108 8.214 7.05089 8.47385 7.37148 8.47385H9.75114C10.0717 8.47385 10.3315 8.21422 10.3315 7.89344C10.3315 7.57284 10.0717 7.31303 9.75114 7.31303Z"/>
<path d="M7.58409 0.793137C3.8397 0.793137 0.793335 3.8395 0.793335 7.58389C0.793335 11.3283 3.8397 14.3747 7.58409 14.3747C11.3285 14.3747 14.3749 11.3283 14.3749 7.58389C14.3749 3.8395 11.3285 0.793137 7.58409 0.793137ZM7.58409 13.2141C4.4797 13.2141 1.95415 10.6885 1.95415 7.58411C1.95415 4.47972 4.4797 1.95414 7.58409 1.95414C10.6885 1.95414 13.214 4.47969 13.214 7.58411C13.214 10.6885 10.6885 13.2141 7.58409 13.2141Z"/>
</svg>
