<svg viewBox="0 0 16 16" strocke="currentColor" fill="currentColor" xmlns="http://www.w3.org/2000/svg">
<path d="M14.2857 1.71428H12.5714V0.571439C12.5714 0.255837 12.3156 0 12 0C11.6844 0 11.4286 0.255837 11.4286 0.571439V1.71428H4.57141V0.571439C4.57141 0.255837 4.31558 0 4.00001 0C3.68444 0 3.42857 0.255837 3.42857 0.571439V1.71428H1.71428C0.767511 1.71428 0 2.4818 0 3.42857V14.2857C0 15.2325 0.767511 16 1.71428 16H14.2857C15.2325 16 16 15.2325 16 14.2857V3.42857C16 2.4818 15.2325 1.71428 14.2857 1.71428ZM14.8571 14.2857C14.8571 14.6013 14.6013 14.8572 14.2857 14.8572H1.71428C1.39868 14.8572 1.14285 14.6013 1.14285 14.2857V6.85714H14.8571V14.2857ZM14.8571 5.71429H1.14285V3.42857C1.14285 3.11297 1.39868 2.85713 1.71428 2.85713H3.42857V3.99997C3.42857 4.31558 3.68441 4.57141 4.00001 4.57141C4.31561 4.57141 4.57145 4.31558 4.57145 3.99997V2.85713H11.4286V3.99997C11.4286 4.31558 11.6844 4.57141 12 4.57141C12.3156 4.57141 12.5715 4.31558 12.5715 3.99997V2.85713H14.2857C14.6014 2.85713 14.8572 3.11297 14.8572 3.42857V5.71429H14.8571Z" />
<path d="M4.57141 8H3.42856C3.11295 8 2.85712 8.25584 2.85712 8.57145C2.85712 8.88705 3.11295 9.14289 3.42856 9.14289H4.57141C4.88701 9.14289 5.14285 8.88705 5.14285 8.57145C5.14285 8.25584 4.88701 8 4.57141 8Z" />
<path d="M8.57144 8H7.42859C7.11299 8 6.85715 8.25584 6.85715 8.57145C6.85715 8.88705 7.11299 9.14289 7.42859 9.14289H8.57144C8.88705 9.14289 9.14289 8.88705 9.14289 8.57145C9.14289 8.25584 8.88705 8 8.57144 8Z" />
<path d="M12.5715 8H11.4286C11.113 8 10.8572 8.25584 10.8572 8.57145C10.8572 8.88705 11.113 9.14289 11.4286 9.14289H12.5715C12.8871 9.14289 13.1429 8.88705 13.1429 8.57145C13.1429 8.25584 12.887 8 12.5715 8Z" />
<path d="M4.57141 10.2856H3.42856C3.11295 10.2856 2.85712 10.5415 2.85712 10.8571C2.85712 11.1727 3.11295 11.4285 3.42856 11.4285H4.57141C4.88701 11.4285 5.14285 11.1727 5.14285 10.8571C5.14285 10.5415 4.88701 10.2856 4.57141 10.2856Z" />
<path d="M8.57144 10.2856H7.42859C7.11299 10.2856 6.85715 10.5415 6.85715 10.8571C6.85715 11.1727 7.11299 11.4285 7.42859 11.4285H8.57144C8.88705 11.4285 9.14289 11.1727 9.14289 10.8571C9.14289 10.5415 8.88705 10.2856 8.57144 10.2856Z" />
<path d="M12.5715 10.2856H11.4286C11.113 10.2856 10.8572 10.5415 10.8572 10.8571C10.8572 11.1727 11.113 11.4285 11.4286 11.4285H12.5715C12.8871 11.4285 13.1429 11.1727 13.1429 10.8571C13.1429 10.5415 12.887 10.2856 12.5715 10.2856Z" />
<path d="M4.57141 12.5713H3.42856C3.11295 12.5713 2.85712 12.8271 2.85712 13.1427C2.85712 13.4583 3.11295 13.7141 3.42856 13.7141H4.57141C4.88701 13.7141 5.14285 13.4583 5.14285 13.1427C5.14285 12.8271 4.88701 12.5713 4.57141 12.5713Z" />
<path d="M8.57144 12.5713H7.42859C7.11299 12.5713 6.85715 12.8271 6.85715 13.1427C6.85715 13.4583 7.11299 13.7142 7.42859 13.7142H8.57144C8.88705 13.7142 9.14289 13.4583 9.14289 13.1427C9.14289 12.8271 8.88705 12.5713 8.57144 12.5713Z" />
<path d="M12.5715 12.5713H11.4286C11.113 12.5713 10.8572 12.8271 10.8572 13.1427C10.8572 13.4583 11.113 13.7142 11.4286 13.7142H12.5715C12.8871 13.7142 13.1429 13.4583 13.1429 13.1427C13.1429 12.8271 12.887 12.5713 12.5715 12.5713Z" />
</svg>
