<svg viewBox="0 0 16 15" strocke="currentColor" fill="currentColor" xmlns="http://www.w3.org/2000/svg">
<path d="M15.8234 1.79452C15.5868 1.55736 15.2036 1.55674 14.9662 1.79289L10.3644 6.3761L9.0345 5.0462C8.79772 4.80964 8.41431 4.80942 8.17753 5.0462L2.7836 10.4402C2.54682 10.6767 2.54682 11.0606 2.7836 11.2971C2.83979 11.3535 2.90658 11.3982 2.98012 11.4287C3.05366 11.4592 3.1325 11.4748 3.2121 11.4747C3.36704 11.4747 3.52241 11.4155 3.64057 11.2971L8.60603 6.33188L9.93512 7.66076C10.1717 7.89732 10.5541 7.89754 10.7913 7.66176L15.8216 2.65167C16.0587 2.41552 16.0595 2.03167 15.8234 1.79452Z" />
<path d="M15.3737 13.3333H1.21212V0.606031C1.21212 0.271281 0.940811 -3.05176e-05 0.606061 -3.05176e-05C0.271312 -3.05176e-05 0 0.271281 0 0.606031V13.9393C0 14.2741 0.271312 14.5454 0.606061 14.5454H15.3737C15.7085 14.5454 15.9798 14.2741 15.9798 13.9393C15.9798 13.6046 15.7085 13.3333 15.3737 13.3333Z" />
<path d="M15.3939 1.59595H10.8485C10.5137 1.59595 10.2424 1.86726 10.2424 2.20201C10.2424 2.53676 10.5137 2.80807 10.8485 2.80807H14.7879V6.74766C14.7879 7.08219 15.0592 7.35372 15.394 7.35372C15.7287 7.35372 16 7.08219 16 6.74744V2.20201C16 1.86726 15.7287 1.59595 15.3939 1.59595Z" />
</svg>
