<svg viewBox="0 0 16 16" strocke="currentColor" fill="currentColor" xmlns="http://www.w3.org/2000/svg">
<path d="M15.147 3.05648C14.5364 0.854227 12.7002 0.0759144 12.6225 0.0437894C12.3263 -0.0780856 11.9869 0.0631332 11.8646 0.359539C11.7426 0.655946 11.8842 0.995071 12.1804 1.11716C12.1943 1.12279 13.5678 1.70551 14.0286 3.36682C14.0998 3.62376 14.3333 3.79226 14.5875 3.79226C14.6388 3.79226 14.691 3.78529 14.7429 3.77098C15.0518 3.68526 15.2327 3.36545 15.147 3.05648Z" />
<path d="M3.30338 0.359565C3.18132 0.0629709 2.84157 -0.0780603 2.54576 0.0438147C2.46779 0.0757522 0.631787 0.854252 0.0211932 3.05669C-0.0643068 3.36547 0.116568 3.68528 0.425537 3.77097C0.476126 3.78502 0.528378 3.79218 0.580881 3.79225C0.835287 3.79206 1.0686 3.62375 1.14001 3.36681C1.59329 1.73103 2.92726 1.1431 2.99035 1.11619C3.28501 0.993158 3.4251 0.655002 3.30338 0.359565Z" />
<path d="M13.8655 15.0182L12.5499 13.6444C12.328 13.4126 11.9608 13.4049 11.7292 13.6266C11.4979 13.8483 11.4897 14.2157 11.7114 14.4473L13.027 15.8211C13.0812 15.8777 13.1462 15.9228 13.2183 15.9536C13.2904 15.9843 13.3679 16.0001 13.4463 16.0001C13.5906 16.0001 13.7351 15.9465 13.8477 15.8389C14.0791 15.6172 14.0872 15.2498 13.8655 15.0182Z" />
<path d="M3.43925 13.6265C3.20766 13.405 2.8401 13.4127 2.61857 13.6443L1.30297 15.0181C1.08125 15.2497 1.08919 15.6171 1.32057 15.8388C1.42851 15.9424 1.57239 16.0002 1.722 16C1.87466 16 2.02728 15.94 2.14125 15.821L3.45685 14.4472C3.67857 14.2156 3.67063 13.8482 3.43925 13.6265Z" />
<path d="M9.7512 7.31283H7.95195V4.54623C7.95195 4.22566 7.69211 3.96582 7.37154 3.96582C7.05098 3.96582 6.79114 4.22566 6.79114 4.54623V7.89324C6.79114 8.2138 7.05095 8.47365 7.37154 8.47365H9.7512C10.0718 8.47365 10.3316 8.21402 10.3316 7.89324C10.3316 7.57264 10.0718 7.31283 9.7512 7.31283Z" />
<path d="M7.58409 0.792969C3.8397 0.792969 0.793335 3.83933 0.793335 7.58373C0.793335 11.3281 3.8397 14.3745 7.58409 14.3745C11.3285 14.3745 14.3749 11.3281 14.3749 7.58373C14.3749 3.83933 11.3285 0.792969 7.58409 0.792969ZM7.58409 13.2139C4.4797 13.2139 1.95415 10.6883 1.95415 7.58395C1.95415 4.47955 4.4797 1.95398 7.58409 1.95398C10.6885 1.95398 13.214 4.47952 13.214 7.58395C13.214 10.6884 10.6885 13.2139 7.58409 13.2139Z" />
</svg>
