<svg viewBox="0 0 13 10" fill="currentColor" strocke="currentColor" xmlns="http://www.w3.org/2000/svg">
<path d="M12.8657 8.45125V6.57031C12.4457 6.78349 12.0068 6.96531 11.5491 7.10324C10.1447 7.52959 8.30761 7.76157 6.37025 7.76157C4.65233 7.76157 2.9783 7.56721 1.66164 7.22237C1.12244 7.08444 0.602047 6.89634 0.100464 6.65182L0.131813 8.47006V8.4826C0.131813 8.57664 0.407683 8.99672 1.73061 9.40426C2.98457 9.78671 4.67741 9.99989 6.48938 9.99989C8.29507 9.99989 9.99419 9.78044 11.2607 9.38545C12.5836 8.97164 12.872 8.53902 12.872 8.45125H12.8657Z" />
<path d="M11.5052 3.63645C10.1071 4.05025 8.28884 4.27597 6.38282 4.27597C4.53324 4.27597 2.77142 4.06279 1.41088 3.6678C0.940646 3.53613 0.482952 3.36058 0.0440674 3.14113L0.0691461 4.58318L0.0754163 5.10985C0.56446 5.71801 2.90309 6.50174 6.37655 6.50174C8.18852 6.50174 9.90017 6.28857 11.1855 5.89984C12.5398 5.48603 12.8344 5.05969 12.8344 4.97191C12.8344 4.90294 12.8721 4.82771 12.8721 4.76501H12.8783V3.10352C12.4394 3.32296 11.9817 3.51105 11.5052 3.63645Z" />
<path d="M11.2104 0.595629C9.93134 0.206903 8.1758 0 6.38264 0H6.27606C4.60829 0 3.02204 0.188094 1.8057 0.532932C0.507854 0.896579 0.0626982 1.31039 0.00627017 1.47967C3.82584e-07 1.49221 0 1.49848 0 1.50475L0.0125403 1.52983C0.0501591 1.66149 0.420076 2.08784 1.76808 2.48283C3.01577 2.84021 4.65845 3.04084 6.38891 3.04084C8.1758 3.04084 9.86864 2.83394 11.1539 2.45149C12.5458 2.03768 12.8593 1.60506 12.8656 1.51102V1.50475C12.8593 1.4107 12.5458 0.996896 11.2104 0.595629Z" />
</svg>
