<svg viewBox="0 0 7 12" fill="currentColor" strocke="currentColor"  xmlns="http://www.w3.org/2000/svg">
<path d="M3.08381 5.29807C2.19311 5.29807 1.46848 4.67088 1.46848 3.9C1.46848 3.12904 2.19311 2.50185 3.08381 2.50185C3.97452 2.50185 4.69914 3.12904 4.69914 3.9C4.69914 4.30544 5.02794 4.63424 5.43338 4.63424C5.83883 4.63424 6.16763 4.30544 6.16763 3.9C6.16763 2.5545 5.16509 1.42318 3.81805 1.11612V0.734241C3.81805 0.328793 3.48926 0 3.08381 0C2.67837 0 2.34957 0.328793 2.34957 0.734241V1.11612C1.00253 1.42318 0 2.5545 0 3.9C0 5.4806 1.38338 6.76655 3.08381 6.76655C3.97452 6.76655 4.69914 7.39374 4.69914 8.16469C4.69914 8.93564 3.97452 9.56283 3.08381 9.56283C2.19311 9.56283 1.46848 8.93564 1.46848 8.16469C1.46848 7.75924 1.13969 7.43045 0.734241 7.43045C0.328793 7.43045 0 7.75924 0 8.16469C0 9.51019 1.00253 10.6415 2.34957 10.9486V11.2658C2.34957 11.6712 2.67837 12 3.08381 12C3.48926 12 3.81805 11.6712 3.81805 11.2658V10.9486C5.16509 10.6415 6.16763 9.51019 6.16763 8.16469C6.16763 6.58401 4.78424 5.29807 3.08381 5.29807Z" />
</svg>
