<svg viewBox="0 0 16 16" strocke="currentColor" fill="currentColor" xmlns="http://www.w3.org/2000/svg">
<path d="M15.9424 12.4323L15.0131 9.7278C15.4611 8.81211 15.6978 7.79373 15.6994 6.76907C15.7021 4.98741 15.0128 3.30282 13.7584 2.02563C12.5037 0.748188 10.8317 0.029093 9.05049 0.000874186C7.20346 -0.0283134 5.46733 0.67425 4.16211 1.97944C2.90354 3.23797 2.20548 4.89713 2.18338 6.67014C0.942943 7.60408 0.210786 9.06017 0.213192 10.6155C0.214348 11.3433 0.378161 12.0667 0.688568 12.721L0.0484728 14.5837C-0.0615586 14.9039 0.0188165 15.2516 0.258255 15.4911C0.426755 15.6596 0.648912 15.7493 0.877381 15.7493C0.973506 15.7493 1.07076 15.7334 1.1656 15.7008L3.02839 15.0607C3.68261 15.3712 4.40608 15.535 5.13389 15.5361H5.14164C6.72008 15.5361 8.18727 14.785 9.1178 13.5142C10.0861 13.4887 11.0442 13.2543 11.9104 12.8306L14.6149 13.7599C14.7251 13.7979 14.8408 13.8174 14.9574 13.8175C15.2289 13.8175 15.4929 13.7108 15.6932 13.5105C15.9777 13.226 16.0732 12.8128 15.9424 12.4323ZM5.14158 14.5837H5.13536C4.49117 14.5828 3.85145 14.424 3.28548 14.1245C3.22792 14.0941 3.16473 14.0758 3.09981 14.0707C3.03489 14.0656 2.96963 14.0739 2.90804 14.0951L0.997944 14.7514L1.65429 12.8414C1.67545 12.7798 1.68375 12.7145 1.67869 12.6496C1.67362 12.5847 1.6553 12.5215 1.62485 12.4639C1.32541 11.8979 1.1666 11.2582 1.1656 10.614C1.16401 9.5778 1.5671 8.59564 2.27201 7.8602C2.50226 9.26383 3.17123 10.5573 4.20817 11.5758C5.23745 12.5867 6.53127 13.2304 7.92727 13.4409C7.19014 14.1674 6.19652 14.5837 5.14158 14.5837ZM15.0197 12.8371C14.9926 12.8642 14.9604 12.8716 14.9243 12.8591L12.0291 11.8642C11.9675 11.8431 11.9022 11.8348 11.8373 11.8398C11.7724 11.8449 11.7092 11.8632 11.6517 11.8937C10.825 12.331 9.89087 12.5629 8.95018 12.5644H8.94118C5.7892 12.5644 3.18567 10.0039 3.13573 6.8527C3.11057 5.26567 3.71426 3.77413 4.83555 2.65285C5.95683 1.53156 7.44861 0.928095 9.03543 0.953095C12.1897 1.00313 14.7519 3.61147 14.747 6.76757C14.7455 7.70826 14.5136 8.64242 14.0763 9.46902C14.0459 9.52658 14.0276 9.58977 14.0225 9.65469C14.0174 9.71961 14.0258 9.78487 14.0469 9.84646L15.0418 12.7417C15.0542 12.778 15.0467 12.8101 15.0197 12.8371Z" />
<path d="M11.7779 4.23441H6.10412C5.84112 4.23441 5.62793 4.44762 5.62793 4.71059C5.62793 4.97359 5.84115 5.18678 6.10412 5.18678H11.7779C12.0409 5.18678 12.2541 4.97356 12.2541 4.71059C12.2541 4.44762 12.0409 4.23441 11.7779 4.23441Z" />
<path d="M11.7779 6.1929H6.10412C5.84112 6.1929 5.62793 6.40612 5.62793 6.66909C5.62793 6.93206 5.84115 7.14528 6.10412 7.14528H11.7779C12.0409 7.14528 12.2541 6.93206 12.2541 6.66909C12.2541 6.40612 12.0409 6.1929 11.7779 6.1929Z" />
<path d="M9.59392 8.15128H6.10412C5.84112 8.15128 5.62793 8.3645 5.62793 8.62746C5.62793 8.89046 5.84115 9.10365 6.10412 9.10365H9.59389C9.85689 9.10365 10.0701 8.89043 10.0701 8.62746C10.0701 8.3645 9.85692 8.15128 9.59392 8.15128Z" />
</svg>
