<svg viewBox="0 0 13 12" strocke="currentColor" fill="currentColor" xmlns="http://www.w3.org/2000/svg">
<path fill-rule="evenodd" clip-rule="evenodd" d="M12.6 1.5C12.6 1.74853 12.3985 1.95 12.15 1.95H10.05C9.80147 1.95 9.6 1.74853 9.6 1.5C9.6 1.25147 9.80147 1.05 10.05 1.05H12.15C12.3985 1.05 12.6 1.25147 12.6 1.5Z"/>
<path fill-rule="evenodd" clip-rule="evenodd" d="M6.6 1.5C6.6 1.74853 6.39853 1.95 6.15 1.95L0.45 1.95C0.201472 1.95 6.10674e-08 1.74853 3.93404e-08 1.5C1.76134e-08 1.25147 0.201472 1.05 0.45 1.05L6.15 1.05C6.39853 1.05 6.6 1.25147 6.6 1.5Z"/>
<path fill-rule="evenodd" clip-rule="evenodd" d="M8.7 2.14286C9.05504 2.14286 9.34286 1.85504 9.34286 1.5C9.34286 1.14496 9.05504 0.857143 8.7 0.857143C8.34496 0.857143 8.05714 1.14496 8.05714 1.5C8.05714 1.85504 8.34496 2.14286 8.7 2.14286ZM8.7 3C9.52843 3 10.2 2.32843 10.2 1.5C10.2 0.671573 9.52843 0 8.7 0C7.87157 0 7.2 0.671573 7.2 1.5C7.2 2.32843 7.87157 3 8.7 3Z"/>
<path fill-rule="evenodd" clip-rule="evenodd" d="M0 6C0 6.24853 0.201472 6.45 0.45 6.45H2.55C2.79853 6.45 3 6.24853 3 6C3 5.75147 2.79853 5.55 2.55 5.55H0.45C0.201472 5.55 0 5.75147 0 6Z"/>
<path fill-rule="evenodd" clip-rule="evenodd" d="M6 6C6 6.24853 6.20147 6.45 6.45 6.45L12.15 6.45C12.3985 6.45 12.6 6.24853 12.6 6C12.6 5.75147 12.3985 5.55 12.15 5.55L6.45 5.55C6.20147 5.55 6 5.75147 6 6Z"/>
<path fill-rule="evenodd" clip-rule="evenodd" d="M3.9 6.64286C3.54496 6.64286 3.25714 6.35504 3.25714 6C3.25714 5.64496 3.54496 5.35714 3.9 5.35714C4.25504 5.35714 4.54286 5.64496 4.54286 6C4.54286 6.35504 4.25504 6.64286 3.9 6.64286ZM3.9 7.5C3.07157 7.5 2.4 6.82843 2.4 6C2.4 5.17157 3.07157 4.5 3.9 4.5C4.72843 4.5 5.4 5.17157 5.4 6C5.4 6.82843 4.72843 7.5 3.9 7.5Z"/>
<path fill-rule="evenodd" clip-rule="evenodd" d="M12.6 10.5C12.6 10.7485 12.3985 10.95 12.15 10.95H10.05C9.80147 10.95 9.6 10.7485 9.6 10.5C9.6 10.2515 9.80147 10.05 10.05 10.05H12.15C12.3985 10.05 12.6 10.2515 12.6 10.5Z"/>
<path fill-rule="evenodd" clip-rule="evenodd" d="M6.6 10.5C6.6 10.7485 6.39853 10.95 6.15 10.95H0.45C0.201472 10.95 6.10674e-08 10.7485 3.93404e-08 10.5C1.76134e-08 10.2515 0.201472 10.05 0.45 10.05H6.15C6.39853 10.05 6.6 10.2515 6.6 10.5Z"/>
<path fill-rule="evenodd" clip-rule="evenodd" d="M8.7 11.1429C9.05504 11.1429 9.34286 10.855 9.34286 10.5C9.34286 10.145 9.05504 9.85714 8.7 9.85714C8.34496 9.85714 8.05714 10.145 8.05714 10.5C8.05714 10.855 8.34496 11.1429 8.7 11.1429ZM8.7 12C9.52843 12 10.2 11.3284 10.2 10.5C10.2 9.67157 9.52843 9 8.7 9C7.87157 9 7.2 9.67157 7.2 10.5C7.2 11.3284 7.87157 12 8.7 12Z"/>
</svg>
