<svg width="30" height="24" viewBox="0 0 30 24" fill="none" xmlns="http://www.w3.org/2000/svg">
<rect width="30" height="24" rx="3" fill="#F5F5F5"/>
<path d="M22.5862 4.08626L23.5345 5.55178C23.6207 5.63799 23.6207 5.8104 23.4483 5.89661L23.1896 6.06902C23.1034 6.15523 22.931 6.15523 22.8448 5.98281L21.8965 4.6035C21.8103 4.5173 21.8103 4.34488 21.9827 4.25868L22.2414 4.08626C22.3276 4.00005 22.5 4.00005 22.5862 4.08626Z" fill="#464655"/>
<path d="M17.9311 7.44826C15.5173 5.89654 12.3276 6.49999 10.6897 8.91378C9.91381 10.0345 10.1724 11.6724 11.3793 12.4483C12.5862 13.2241 14.2242 12.8793 15 11.7586C15.7759 10.5517 17.4138 10.2069 18.6207 11.069C19.8276 11.8448 20.1724 13.4827 19.3104 14.6896C20.9483 12.2758 20.2586 8.99999 17.9311 7.44826Z" fill="#FF4B55"/>
<path d="M10.6897 8.91382C9.91381 10.0345 10.1724 11.6724 11.3793 12.4483C12.5862 13.2242 14.2242 12.8793 15 11.7586C15.7759 10.5517 17.4138 10.2069 18.6207 11.069C19.8276 11.8449 20.1724 13.4828 19.3104 14.6897C17.7586 17.1035 14.4828 17.7069 12.069 16.1552C9.7414 14.5173 9.05174 11.2414 10.6897 8.91382Z" fill="#41479B"/>
<path d="M20.5172 5.46551L21.4655 6.84482C21.5517 6.93103 21.5517 7.10344 21.3793 7.18965L21.2069 7.44827C21.0345 7.44827 20.862 7.44827 20.7758 7.36206L19.8276 5.98275C19.7414 5.89654 19.7414 5.72413 19.9138 5.63792L20.1724 5.46551C20.2586 5.2931 20.431 5.3793 20.5172 5.46551Z" fill="#464655"/>
<path d="M21.9827 7.62075L22.931 9.00006C23.0172 9.08627 23.0172 9.25868 22.8448 9.34489L22.5862 9.5173C22.5 9.60351 22.3276 9.60351 22.2414 9.4311L21.2931 8.05179C21.2069 7.96558 21.2069 7.79317 21.3793 7.70696L21.6379 7.53455C21.7241 7.53455 21.8965 7.53455 21.9827 7.62075Z" fill="#464655"/>
<path d="M21.5517 4.77585L23.9655 8.39654C24.0517 8.48274 24.0517 8.65516 23.8793 8.74136L23.6207 8.91378C23.5345 8.99998 23.362 8.99998 23.2758 8.82757L20.862 5.20688C20.7758 5.12067 20.7758 4.94826 20.9483 4.86205L21.2069 4.68964C21.2931 4.60343 21.4655 4.68964 21.5517 4.77585Z" fill="#464655"/>
<path d="M24.0517 6.32765L25 7.70696C25.0862 7.79316 25.0862 7.96558 24.9138 8.05178L24.6551 8.2242C24.5689 8.3104 24.3965 8.3104 24.3103 8.13799L23.362 6.75868C23.2758 6.67247 23.2758 6.50006 23.4483 6.41385L23.7069 6.24144C23.7931 6.15523 23.9655 6.15523 24.0517 6.32765Z" fill="#464655"/>
<path d="M7.75861 14L10.1724 17.6207C10.2586 17.7069 10.2586 17.8793 10.0862 17.9655L9.82757 18.1379C9.74137 18.2241 9.56895 18.2241 9.48275 18.0517L7.06895 14.431C6.98275 14.3448 6.98275 14.1724 7.15516 14.0862L7.41378 13.9138C7.49999 13.8276 7.6724 13.9138 7.75861 14Z" fill="#464655"/>
<path d="M6.72412 14.6897L7.6724 16.069C7.75861 16.1552 7.75861 16.3276 7.58619 16.4138L7.32757 16.5863C7.24137 16.6725 7.06895 16.6725 6.98275 16.5001L6.03447 15.1207C5.94826 15.0345 5.94826 14.8621 6.12068 14.7759L6.3793 14.6035C6.4655 14.5173 6.63792 14.5173 6.72412 14.6897Z" fill="#464655"/>
<path d="M8.18966 16.8448L9.13793 18.2241C9.22414 18.3103 9.22414 18.4827 9.05173 18.569L8.79311 18.7414C8.7069 18.8276 8.53449 18.8276 8.44828 18.6552L7.5 17.2758C7.4138 17.1896 7.5 17.0172 7.58621 16.931L7.84483 16.7586C7.93104 16.6724 8.10345 16.7586 8.18966 16.8448Z" fill="#464655"/>
<path d="M5.68966 15.3793L8.10345 19C8.18966 19.0862 8.18966 19.2586 8.01724 19.3448L7.84483 19.5172C7.67241 19.5172 7.5 19.5172 7.41379 19.431L5 15.8103C5 15.6379 5 15.5517 5.08621 15.4655L5.34483 15.2931C5.51724 15.2069 5.60345 15.2069 5.68966 15.3793Z" fill="#464655"/>
<path d="M7.06895 9.08623L9.48275 5.46554C9.56895 5.37934 9.74137 5.29313 9.82758 5.37934L10.0862 5.55175C10.1724 5.63796 10.2586 5.81037 10.1724 5.89658L7.75861 9.51727C7.6724 9.60347 7.49999 9.68968 7.41378 9.60347L7.15516 9.43106C6.98275 9.34485 6.98275 9.17244 7.06895 9.08623Z" fill="#464655"/>
<path d="M6.03449 8.39654L8.44828 4.77585C8.53449 4.68964 8.7069 4.60343 8.79311 4.68964L9.05173 4.86205C9.13794 4.94826 9.22414 5.12067 9.13794 5.20688L6.72414 8.82757C6.63794 8.99998 6.46552 8.99998 6.37931 8.91378L6.12069 8.74136C6.03449 8.65516 5.94828 8.48274 6.03449 8.39654Z" fill="#464655"/>
<path d="M5.0862 7.70695L7.49999 4.08626C7.49999 4.00005 7.67241 4.00005 7.84482 4.08626L8.10344 4.25868C8.18965 4.34488 8.27586 4.5173 8.18965 4.6035L5.68965 8.13799C5.60344 8.3104 5.51724 8.3104 5.34482 8.22419L5.0862 8.05178C4.99999 8.05178 4.99999 7.87937 5.0862 7.70695Z" fill="#464655"/>
<path d="M19.8276 17.6207L20.7758 16.2414C20.8621 16.1552 21.0345 16.069 21.1207 16.1552L21.3793 16.3276C21.4655 16.4138 21.5517 16.5862 21.4655 16.6725L20.5172 18.0518C20.431 18.138 20.2586 18.2242 20.1724 18.138L19.9138 17.9656C19.8276 17.8794 19.8276 17.7069 19.8276 17.6207Z" fill="#464655"/>
<path d="M21.2931 15.3793L22.2414 13.9138C22.3276 13.8276 22.5 13.7414 22.5862 13.8276L22.8448 14C22.931 14.0862 23.0172 14.2586 22.931 14.3448L21.9828 15.7241C21.8965 15.8103 21.7241 15.8965 21.6379 15.8103H21.3793C21.2931 15.7241 21.2069 15.5517 21.2931 15.3793Z" fill="#464655"/>
<path d="M20.8621 18.3103L21.8103 16.931C21.8965 16.8448 22.069 16.7586 22.1552 16.8448L22.4138 17.0172C22.5 17.1034 22.5862 17.2758 22.5 17.362L21.5517 18.7413C21.4655 18.8275 21.2931 18.9138 21.2069 18.8276L20.9483 18.6551C20.8621 18.5689 20.7759 18.3965 20.8621 18.3103Z" fill="#464655"/>
<path d="M22.3276 16.069L23.2759 14.6897C23.3621 14.6035 23.5345 14.5173 23.6207 14.6035L23.8793 14.7759C23.9655 14.8621 24.0517 15.0345 23.9655 15.1207L23.0172 16.5C22.931 16.5862 22.7586 16.6724 22.6724 16.5862L22.4138 16.4138C22.3276 16.3276 22.2414 16.2414 22.3276 16.069Z" fill="#464655"/>
<path d="M21.8965 18.9138L22.8448 17.5345C22.931 17.4483 23.1034 17.3621 23.1896 17.4483L23.4483 17.6207C23.5345 17.7069 23.6207 17.8793 23.5345 17.9655L22.5862 19.3449C22.5 19.5173 22.3276 19.5173 22.2414 19.5173L21.9827 19.3449C21.8103 19.2587 21.8103 19.0862 21.8965 18.9138Z" fill="#464655"/>
<path d="M23.362 16.7587L24.3103 15.3794C24.3965 15.2932 24.5689 15.2069 24.6551 15.2932L24.9138 15.4656C25 15.5518 25.0862 15.7242 25 15.8104L24.0517 17.1897C23.9655 17.2759 23.7931 17.3621 23.7069 17.2759L23.4483 17.1035C23.2758 17.0173 23.2758 16.8449 23.362 16.7587Z" fill="#464655"/>
</svg>
