<svg viewBox="0 0 16 16" strocke="currentColor" fill="currentColor" xmlns="http://www.w3.org/2000/svg">
<path fill-rule="evenodd" clip-rule="evenodd" d="M8 1.11629C4.19823 1.11629 1.11628 4.19823 1.11628 8.00001C1.11628 11.8018 4.19823 14.8837 8 14.8837C11.8018 14.8837 14.8837 11.8018 14.8837 8.00001C14.8837 4.19823 11.8018 1.11629 8 1.11629ZM0 8.00001C0 3.58173 3.58172 7.62939e-06 8 7.62939e-06C12.4183 7.62939e-06 16 3.58173 16 8.00001C16 12.4183 12.4183 16 8 16C3.58172 16 0 12.4183 0 8.00001Z" />
<path d="M7.18811 11.518C7.18811 11.7333 7.27364 11.9398 7.42589 12.0921C7.57814 12.2443 7.78464 12.3298 7.99995 12.3298C8.21526 12.3298 8.42176 12.2443 8.57401 12.0921C8.72626 11.9398 8.81179 11.7333 8.81179 11.518V6.37635C8.81179 6.16104 8.72626 5.95455 8.57401 5.8023C8.42176 5.65005 8.21526 5.56451 7.99995 5.56451C7.78464 5.56451 7.57814 5.65005 7.42589 5.8023C7.27364 5.95455 7.18811 6.16104 7.18811 6.37635V11.518Z" />
<path d="M7.18811 4.48202C7.18811 4.69733 7.27364 4.90383 7.42589 5.05608C7.57814 5.20833 7.78464 5.29386 7.99995 5.29386C8.21526 5.29386 8.42176 5.20833 8.57401 5.05608C8.72626 4.90383 8.81179 4.69733 8.81179 4.48202C8.81179 4.26671 8.72626 4.06021 8.57401 3.90796C8.42176 3.75571 8.21526 3.67018 7.99995 3.67018C7.78464 3.67018 7.57814 3.75571 7.42589 3.90796C7.27364 4.06021 7.18811 4.26671 7.18811 4.48202Z" />
</svg>
