<svg width="14" height="14" viewBox="0 0 14 14" fill="none" xmlns="http://www.w3.org/2000/svg">
<path d="M1 3C1 2.44772 1.44772 2 2 2H12C12.5523 2 13 2.44772 13 3C13 3.55228 12.5523 4 12 4H2C1.44772 4 1 3.55228 1 3Z" fill="#BDBDBD"/>
<path d="M3.40002 7.5C3.40002 6.94772 3.84774 6.5 4.40002 6.5H12C12.5523 6.5 13 6.94772 13 7.5C13 8.05228 12.5523 8.5 12 8.5H4.40002C3.84774 8.5 3.40002 8.05228 3.40002 7.5Z" fill="#BDBDBD"/>
<path d="M1 12C1 11.4477 1.44772 11 2 11H12C12.5523 11 13 11.4477 13 12C13 12.5523 12.5523 13 12 13H2C1.44772 13 1 12.5523 1 12Z" fill="#BDBDBD"/>
</svg>
