<svg width="249" height="32" viewBox="0 0 249 32" fill="none" xmlns="http://www.w3.org/2000/svg">
<path d="M27.7296 9.91456C27.7296 9.91456 28.9927 12.1874 30.0404 13.2191C31.0881 14.2509 32.1729 14.5649 33.3023 14.7369C34.4317 14.9088 35.2638 14.7593 34.2533 14.1836C33.2428 13.6079 30.6051 11.8285 29.3642 10.4678C28.1234 9.1071 27.9525 8.95757 27.737 9.09215C27.3432 9.32392 27.7296 9.91456 27.7296 9.91456Z" fill="#659AD2"/>
<path d="M12.7502 6.24371V10.4754C12.609 10.5875 12.453 10.6698 12.2821 10.737C12.1409 10.7969 11.9923 10.8268 11.8437 10.8342C11.6802 10.8417 11.5242 10.8118 11.3756 10.737C11.2641 10.6772 11.175 10.5726 11.1304 10.4529C11.0709 10.2959 11.0338 10.1315 11.0264 9.9595C11.0115 9.76511 11.0041 9.51091 11.0041 9.20438V6.24371H9.24312V10.1315C9.24312 10.8791 9.39915 11.4473 9.71122 11.8211C10.0381 12.2024 10.5211 12.4118 11.0189 12.3819C11.331 12.3893 11.6431 12.3146 11.9254 12.1725C12.2226 12.0006 12.505 11.7912 12.765 11.5595V12.2174H14.5186V6.24371H12.7502Z" fill="white"/>
<path d="M18.4344 6.06428C17.4833 6.06428 16.7478 6.35587 16.2202 6.93903C15.6927 7.52219 15.4326 8.29974 15.4252 9.27167C15.4252 10.266 15.7075 11.0361 16.2722 11.5744C16.8369 12.1127 17.6542 12.3819 18.7168 12.3819C18.962 12.3819 19.2072 12.3669 19.4524 12.337C19.653 12.3071 19.8462 12.2622 20.0393 12.2099C20.2028 12.1725 20.3663 12.1202 20.5297 12.0529C20.6486 12.0006 20.7824 11.9482 20.9235 11.8884V10.3558H20.7378C20.6635 10.4156 20.5595 10.4829 20.4406 10.5651C20.3143 10.6473 20.1805 10.7221 20.0393 10.7819C19.8684 10.8641 19.6827 10.924 19.4969 10.9688C19.2963 11.0137 19.0957 11.0436 18.8951 11.0436C18.6722 11.0436 18.4567 11.0212 18.2412 10.9688C18.0555 10.924 17.8772 10.8492 17.7137 10.7296C17.5577 10.6174 17.4313 10.4604 17.3422 10.2885C17.2382 10.0716 17.1861 9.8324 17.1787 9.59316H21.0201V8.92028C21.0201 8.00068 20.8047 7.29789 20.3663 6.80445C19.9279 6.31101 19.2963 6.06428 18.4344 6.06428ZM17.1861 8.46422C17.1861 8.14273 17.2976 7.82872 17.5056 7.582C17.7137 7.35771 18.0035 7.23808 18.3081 7.26051C18.5905 7.23808 18.8654 7.35023 19.0511 7.56705C19.2294 7.82872 19.3186 8.14273 19.3112 8.46422H17.1861Z" fill="white"/>
<path d="M2.42968 4.53911H0.676149V6.24373H0V7.53715H0.668719V10.3259C0.668719 11.0361 0.832184 11.5445 1.15911 11.8585C1.48604 12.1725 2.00616 12.3295 2.71946 12.3295C2.97951 12.3295 3.247 12.3146 3.50706 12.2847C3.71511 12.2548 3.91572 12.2174 4.11634 12.1576V10.8417H3.96773C3.86371 10.8941 3.75969 10.9315 3.64823 10.9614C3.52935 10.9987 3.40304 11.0212 3.27672 11.0286C3.0984 11.0361 2.92007 10.9987 2.75661 10.9165C2.64515 10.8492 2.55599 10.7445 2.51141 10.6249C2.4594 10.4903 2.42968 10.3483 2.42968 10.2062C2.42968 10.0492 2.42225 9.8698 2.42225 9.66046V7.54463H4.10891V6.24373H2.42968V4.53911Z" fill="white"/>
<path d="M8.22529 6.22877C8.06183 6.22877 7.89837 6.25867 7.74976 6.31848C7.59373 6.37082 7.44512 6.43811 7.30395 6.52782C7.1702 6.61006 7.03646 6.70726 6.91758 6.81193C6.7764 6.93155 6.66495 7.02874 6.58322 7.10351V6.24372H4.82969V12.2099H6.58322V8.2175C6.7764 8.13525 6.96959 8.06797 7.1702 8.01563C7.35596 7.9633 7.55658 7.93339 7.74976 7.93339C7.9058 7.93339 8.04697 7.94087 8.17328 7.94834C8.26988 7.95582 8.36647 7.97077 8.46306 8.00068H8.61166V6.24372C8.55222 6.23624 8.49278 6.22877 8.41848 6.22877C8.34418 6.22877 8.28473 6.22877 8.22529 6.22877Z" fill="white"/>
<path d="M40.1529 6.24371H38.3994V12.2099H40.1529V6.24371Z" fill="white"/>
<path d="M44.0908 6.06428C43.1397 6.06428 42.4041 6.35587 41.8766 6.93903C41.349 7.52219 41.089 8.29974 41.0816 9.27167C41.0816 10.266 41.3639 11.0361 41.9286 11.5744C42.4933 12.1127 43.3106 12.3819 44.3731 12.3819C44.6183 12.3819 44.871 12.3669 45.1162 12.337C45.3168 12.3071 45.51 12.2622 45.7031 12.2099C45.8666 12.1725 46.0301 12.1202 46.1935 12.0529C46.3124 12.0006 46.4462 11.9482 46.5873 11.8884V10.3558H46.4016C46.3273 10.4156 46.2233 10.4829 46.1044 10.5651C45.9781 10.6473 45.8443 10.7221 45.7031 10.7819C45.5323 10.8641 45.3465 10.924 45.1607 10.9688C44.9601 11.0137 44.7595 11.0436 44.5589 11.0436C44.336 11.0436 44.1205 11.0212 43.905 10.9688C43.7193 10.924 43.5335 10.8492 43.3775 10.7296C43.2215 10.6174 43.0951 10.4604 43.006 10.2885C42.902 10.0716 42.8499 9.8324 42.8425 9.59316H46.6839V8.92028C46.6839 8.00068 46.4685 7.29789 46.0301 6.80445C45.5991 6.30353 44.9527 6.06428 44.0908 6.06428ZM42.8351 8.46422C42.8351 8.14273 42.9465 7.82872 43.1546 7.582C43.3626 7.35771 43.6524 7.23808 43.9571 7.26051C44.2394 7.23808 44.5143 7.35023 44.7001 7.56705C44.8784 7.82872 44.9676 8.14273 44.9601 8.46422H42.8351Z" fill="white"/>
<path d="M52.3979 6.65493C52.0784 6.25868 51.588 6.04934 51.0827 6.07924C50.7706 6.07177 50.4586 6.14653 50.1762 6.29606C49.8716 6.46054 49.5892 6.66988 49.3366 6.90165V6.24372H47.5831V12.2099H49.3366V7.97825C49.4778 7.86611 49.6413 7.77639 49.8047 7.7091C49.9459 7.65677 50.0945 7.62686 50.2431 7.62686C50.3991 7.61939 50.5552 7.64929 50.6963 7.71658C50.8152 7.77639 50.9044 7.88106 50.9564 8.00816C51.0158 8.18012 51.053 8.35955 51.0604 8.53899C51.0753 8.77823 51.0901 9.01748 51.0901 9.25672V12.2174H52.8511V8.33712C52.8511 7.59696 52.7025 7.0437 52.3979 6.65493Z" fill="white"/>
<path d="M57.5099 6.48298C57.3018 6.36336 57.0789 6.25869 56.8486 6.17645C56.6108 6.10168 56.3731 6.07178 56.1279 6.07925C55.8084 6.07925 55.4889 6.15402 55.2065 6.30355C54.9168 6.45308 54.6641 6.66242 54.4635 6.91661C54.2332 7.21567 54.0549 7.55211 53.936 7.91845C53.8022 8.35956 53.7353 8.81563 53.7428 9.27169C53.7428 10.2137 53.9285 10.9688 54.3 11.5296C54.6195 12.0604 55.1991 12.3819 55.8232 12.3744C55.9867 12.3744 56.1502 12.3595 56.3136 12.3221C56.4548 12.2847 56.596 12.2324 56.7297 12.1651C56.8635 12.0903 56.9898 12.0081 57.1161 11.9109C57.2647 11.7987 57.391 11.694 57.5025 11.5894V12.2099H59.256V3.94847H57.5099V6.48298ZM57.5099 10.5651C57.3836 10.6773 57.235 10.7595 57.0789 10.8268C56.9303 10.8866 56.7743 10.924 56.6108 10.924C56.2839 10.9539 55.9718 10.7969 55.7935 10.5277C55.6226 10.2661 55.5409 9.8399 55.5409 9.24926C55.5112 8.7932 55.6226 8.33713 55.8604 7.94088C56.0759 7.62687 56.4325 7.44744 56.8115 7.46987C56.9303 7.46987 57.0567 7.48482 57.1755 7.51473C57.2944 7.53716 57.4059 7.57454 57.5173 7.62687L57.5099 10.5651Z" fill="white"/>
<path d="M37.3443 6.22877C37.1808 6.22877 37.0173 6.25867 36.8687 6.31848C36.7127 6.37082 36.5641 6.43811 36.4229 6.52782C36.2892 6.61006 36.1554 6.70726 36.0365 6.81193C35.8954 6.93155 35.7839 7.02874 35.7022 7.10351V6.24372H33.9561V12.2099H35.7096V8.2175C35.9028 8.13525 36.096 8.06797 36.2966 8.01563C36.4824 7.9633 36.6755 7.93339 36.8762 7.93339C37.0322 7.93339 37.1734 7.94087 37.2997 7.94834C37.3963 7.95582 37.4929 7.97077 37.5895 8.00068H37.7381V6.24372C37.6786 6.23624 37.6192 6.22877 37.5449 6.22877C37.4706 6.22877 37.4037 6.22877 37.3443 6.22877Z" fill="white"/>
<path d="M30.7908 6.3484C30.2038 6.43812 29.0298 6.58765 28.3017 6.68484C28.0862 7.29791 27.8633 7.92593 27.6553 8.53152C28.3983 8.46423 28.8144 8.40442 29.706 8.27732C30.6942 8.14274 30.7759 8.76329 30.5233 9.24178C30.2707 9.72027 28.2571 11.5296 27.2615 12.4118C26.6225 12.98 27.3952 12.965 27.3952 12.965C27.3952 12.965 31.8162 10.595 32.5518 7.87359C32.8787 6.68484 31.6824 6.21383 30.7908 6.3484Z" fill="white"/>
<path d="M40.1974 3.94847H38.3473V5.3989H40.1974V3.94847Z" fill="white"/>
<path d="M28.3017 6.68484C28.5246 6.05682 28.7401 5.44373 28.9407 4.87552L28.9704 4.78581C29.8472 4.65123 30.7908 4.47927 31.7419 4.29236C34.6248 3.73163 34.4093 2.7896 34.0527 2.22887C33.6886 1.66814 32.8341 1.67561 32.8341 1.67561C32.8341 1.67561 32.7152 2.39335 30.7982 2.77465C30.4193 2.84941 30.0181 2.9167 29.6168 2.96903C29.9215 2.09429 30.1221 1.53356 30.1221 1.53356C30.1221 1.53356 30.5233 0.71863 30.1221 0.292474C29.3791 -0.500027 28.7623 0.569102 28.7623 0.569102L27.6627 3.14099C26.1543 3.22323 24.9581 3.18585 24.9581 3.18585C24.6832 3.16342 24.4008 3.21576 24.1408 3.32043C23.8138 3.49238 23.8435 4.65871 24.9581 4.97272C25.3742 5.09234 26.0355 5.09982 26.8454 5.04L22.9222 14.1986C22.9222 14.1986 22.6176 15.0734 23.3309 15.0285C24.0442 14.9762 25.4113 14.8566 26.0503 13.0996C26.2881 12.4342 26.9494 10.5726 27.6701 8.5315C27.737 8.29973 28.1977 6.99137 28.3017 6.68484ZM28.9704 4.77833L29.6094 2.96156C29.4311 3.47743 29.2156 4.09798 28.9704 4.77833Z" fill="white"/>
<path d="M72.7418 31.5065V17.9069L81.5763 31.5065H89.4969L79.2804 16.5761L89.5935 3.56711H82.5051L72.7418 15.9705V3.56711H67.1394V31.5065H72.7418ZM98.5023 31.5065V3.56711H92.8999V31.5065H98.5023ZM106.014 29.5477C107.894 31.1776 110.591 32 114.098 32C116.513 32 118.527 31.6635 120.139 30.9832C121.685 30.3626 122.992 29.2785 123.891 27.8655C124.761 26.5272 125.221 24.9647 125.214 23.3647C125.214 21.6003 124.842 20.1124 124.107 18.9162C123.356 17.705 122.301 16.7256 121.038 16.0752C119.73 15.3799 117.717 14.7145 114.99 14.064C112.263 13.4136 110.547 12.793 109.841 12.1949C109.313 11.7912 109.009 11.1632 109.009 10.4978C108.994 9.80245 109.328 9.15201 109.9 8.76323C110.822 8.09035 112.1 7.75391 113.727 7.75391C115.302 7.75391 116.491 8.06792 117.278 8.69594C118.066 9.32396 118.579 10.3557 118.824 11.7912L124.426 11.7688C124.337 9.20434 123.416 6.92403 121.655 5.39136C119.894 3.8587 117.271 3.08862 113.786 3.08862C111.654 3.08862 109.833 3.41011 108.325 4.06056C106.913 4.62877 105.702 5.61566 104.863 6.88665C104.075 8.06792 103.659 9.45854 103.659 10.8791C103.659 13.0921 104.513 14.9612 106.215 16.5013C107.426 17.5929 109.536 18.5125 112.538 19.2676C114.871 19.8508 116.372 20.262 117.026 20.4863C117.984 20.8302 118.66 21.2339 119.039 21.6975C119.426 22.1685 119.634 22.7666 119.619 23.3871C119.619 24.4189 119.158 25.316 118.244 26.0861C117.33 26.8562 115.971 27.2375 114.165 27.2375C112.464 27.2375 111.104 26.8039 110.101 25.9441C109.098 25.0768 108.429 23.7236 108.102 21.8844L102.648 21.7423C103.012 24.8675 104.134 27.9178 106.014 29.5477Z" fill="white"/>
<path d="M137.619 16.4343L140.584 7.61186H138.573L136.555 14.5329H136.513L134.495 7.61186H132.428L135.394 16.4343H137.619Z" fill="white"/>
<path d="M142.156 8.99361C142.675 8.99361 143.085 8.57786 143.085 8.07652C143.085 7.56906 142.675 7.15942 142.156 7.15942C141.636 7.15942 141.226 7.56906 141.226 8.07652C141.226 8.57786 141.636 8.99361 142.156 8.99361ZM141.269 16.4343H143.055V9.88014H141.269V16.4343Z" fill="white"/>
<path d="M148.588 14.4289C148.423 14.9303 147.921 15.2543 147.267 15.2543C146.356 15.2543 145.763 14.6123 145.763 13.6769V13.5669H150.281V13.0227C150.281 11.0296 149.077 9.73952 147.169 9.73952C145.231 9.73952 144.008 11.0968 144.008 13.1878C144.008 15.2849 145.219 16.5749 147.236 16.5749C148.857 16.5749 150.031 15.7129 150.226 14.4289H148.588ZM147.188 11.0601C147.982 11.0601 148.527 11.6348 148.563 12.4725H145.781C145.843 11.6532 146.405 11.0601 147.188 11.0601Z" fill="white"/>
<path d="M151.681 8.36999V9.88014H150.758V11.2252H151.681V14.6674C151.681 15.9452 152.281 16.4588 153.821 16.4588C154.182 16.4588 154.488 16.4282 154.671 16.3854V15.0709C154.561 15.0892 154.396 15.1015 154.237 15.1015C153.711 15.1015 153.467 14.863 153.467 14.3617V11.2252H154.677V9.88014H153.467V8.36999H151.681Z" fill="white"/>
<path d="M160.057 16.4343V10.6566H160.113L164.239 16.4343H165.768V7.61186H164.001V13.359H163.952L159.831 7.61186H158.291V16.4343H160.057Z" fill="white"/>
<path d="M168.898 16.5382C169.718 16.5382 170.531 16.1286 170.898 15.4316H170.934V16.4343H172.658V11.9283C172.658 10.6077 171.564 9.73952 169.883 9.73952C168.146 9.73952 167.064 10.6138 166.997 11.8855H168.629C168.715 11.4025 169.137 11.0724 169.803 11.0724C170.476 11.0724 170.904 11.427 170.904 12.0384V12.4725L169.253 12.5703C167.62 12.6681 166.703 13.359 166.703 14.5512C166.703 15.7312 167.651 16.5382 168.898 16.5382ZM169.485 15.2482C168.88 15.2482 168.476 14.9425 168.476 14.4534C168.476 13.9887 168.855 13.6891 169.522 13.6402L170.904 13.5546V14.0315C170.904 14.7407 170.262 15.2482 169.485 15.2482Z" fill="white"/>
<path d="M173.814 16.4343H175.599V12.4786C175.599 11.7449 176.058 11.2313 176.736 11.2313C177.397 11.2313 177.794 11.6471 177.794 12.3502V16.4343H179.512V12.4541C179.512 11.7266 179.958 11.2313 180.637 11.2313C181.328 11.2313 181.707 11.6471 181.707 12.4052V16.4343H183.492V11.9589C183.492 10.6383 182.63 9.75786 181.346 9.75786C180.386 9.75786 179.604 10.2775 179.31 11.1029H179.274C179.054 10.247 178.393 9.75786 177.446 9.75786C176.553 9.75786 175.85 10.2775 175.575 11.0662H175.538V9.88014H173.814V16.4343Z" fill="white"/>
<path d="M132.685 27.3721C132.789 28.8945 134.073 29.885 135.999 29.885C137.974 29.885 139.258 28.8639 139.258 27.2315C139.258 25.9843 138.53 25.2506 136.69 24.8471L135.712 24.6331C134.507 24.3702 134.036 23.8933 134.036 23.1963C134.036 22.2975 134.886 21.7595 135.987 21.7595C137.136 21.7595 137.901 22.3526 137.998 23.3186H139.099C139.05 21.8206 137.778 20.769 136.017 20.769C134.189 20.769 132.905 21.7901 132.905 23.2452C132.905 24.4986 133.67 25.2995 135.437 25.6847L136.415 25.8987C137.638 26.1677 138.127 26.6568 138.127 27.3966C138.127 28.2648 137.259 28.8945 136.06 28.8945C134.795 28.8945 133.914 28.3198 133.786 27.3721H132.685Z" fill="white"/>
<path d="M144.601 27.9163C144.424 28.5154 143.831 28.9251 143.024 28.9251C141.881 28.9251 141.165 28.1241 141.165 26.9075V26.8463H145.726V26.4428C145.726 24.5169 144.669 23.2697 142.951 23.2697C141.196 23.2697 140.071 24.6086 140.071 26.5834C140.071 28.5827 141.178 29.8483 143 29.8483C144.387 29.8483 145.463 29.029 145.647 27.9163H144.601ZM142.932 24.1929C143.935 24.1929 144.601 24.951 144.626 26.0148H141.171C141.239 24.9571 141.936 24.1929 142.932 24.1929Z" fill="white"/>
<path d="M152.085 25.4646C151.95 24.3213 151.003 23.2697 149.413 23.2697C147.658 23.2697 146.491 24.5536 146.491 26.559C146.491 28.6071 147.665 29.8483 149.425 29.8483C150.868 29.8483 151.932 28.9556 152.097 27.6901H151.052C150.868 28.4543 150.3 28.9128 149.431 28.9128C148.331 28.9128 147.573 28.0385 147.573 26.559C147.573 25.1161 148.319 24.2051 149.419 24.2051C150.355 24.2051 150.893 24.7737 151.046 25.4646H152.085Z" fill="white"/>
<path d="M158.297 23.3797H157.233V27.1153C157.233 28.1975 156.609 28.9067 155.576 28.9067C154.592 28.9067 154.109 28.3504 154.109 27.3171V23.3797H153.045V27.5066C153.045 28.9495 153.858 29.8483 155.246 29.8483C156.224 29.8483 156.884 29.4386 157.263 28.705H157.288V29.7382H158.297V23.3797Z" fill="white"/>
<path d="M159.678 29.7382H160.742V25.7764C160.742 24.8776 161.28 24.2846 162.106 24.2846C162.363 24.2846 162.589 24.3151 162.674 24.3457V23.3125C162.589 23.3002 162.43 23.2697 162.246 23.2697C161.5 23.2697 160.913 23.716 160.706 24.4191H160.681V23.3797H159.678V29.7382Z" fill="white"/>
<path d="M164.129 22.2486C164.502 22.2486 164.796 21.949 164.796 21.5822C164.796 21.2092 164.502 20.9158 164.129 20.9158C163.763 20.9158 163.463 21.2092 163.463 21.5822C163.463 21.949 163.763 22.2486 164.129 22.2486ZM163.598 29.7382H164.661V23.3797H163.598V29.7382Z" fill="white"/>
<path d="M166.441 21.8451V23.3797H165.493V24.254H166.441V28.0875C166.441 29.3103 166.893 29.7871 168.061 29.7871C168.311 29.7871 168.605 29.7688 168.733 29.7382V28.8456C168.66 28.8578 168.415 28.8762 168.293 28.8762C167.749 28.8762 167.504 28.6133 167.504 28.0324V24.254H168.739V23.3797H167.504V21.8451H166.441Z" fill="white"/>
<path d="M170.464 22.2486C170.836 22.2486 171.13 21.949 171.13 21.5822C171.13 21.2092 170.836 20.9158 170.464 20.9158C170.097 20.9158 169.797 21.2092 169.797 21.5822C169.797 21.949 170.097 22.2486 170.464 22.2486ZM169.932 29.7382H170.995V23.3797H169.932V29.7382Z" fill="white"/>
<path d="M176.651 27.9163C176.474 28.5154 175.88 28.9251 175.073 28.9251C173.93 28.9251 173.215 28.1241 173.215 26.9075V26.8463H177.776V26.4428C177.776 24.5169 176.718 23.2697 175 23.2697C173.245 23.2697 172.12 24.6086 172.12 26.5834C172.12 28.5827 173.227 29.8483 175.049 29.8483C176.437 29.8483 177.513 29.029 177.696 27.9163H176.651ZM174.982 24.1929C175.984 24.1929 176.651 24.951 176.675 26.0148H173.221C173.288 24.9571 173.985 24.1929 174.982 24.1929Z" fill="white"/>
<path d="M178.742 25.1344C178.742 26.0515 179.323 26.6079 180.521 26.8952L181.53 27.1398C182.257 27.3171 182.508 27.58 182.508 28.0385C182.508 28.6133 181.976 28.9801 181.114 28.9801C180.252 28.9801 179.763 28.6316 179.634 27.904H178.571C178.693 29.0963 179.622 29.8483 181.114 29.8483C182.532 29.8483 183.578 29.0657 183.578 27.9591C183.578 27.0481 183.113 26.5467 181.829 26.2349L180.821 25.9904C180.111 25.8192 179.787 25.5196 179.787 25.0794C179.787 24.523 180.301 24.1378 181.077 24.1378C181.86 24.1378 182.349 24.5475 182.429 25.2139H183.443C183.401 24.0889 182.471 23.2697 181.077 23.2697C179.702 23.2697 178.742 24.0461 178.742 25.1344Z" fill="white"/>
<path d="M191.049 29.885C193 29.885 194.308 28.9128 194.712 27.1704H193.599C193.281 28.2464 192.352 28.87 191.055 28.87C189.313 28.87 188.206 27.4883 188.206 25.3239C188.206 23.1779 189.325 21.784 191.049 21.784C192.309 21.784 193.318 22.5421 193.599 23.6976H194.712C194.43 21.9368 192.969 20.769 191.049 20.769C188.634 20.769 187.075 22.5543 187.075 25.3239C187.075 28.118 188.616 29.885 191.049 29.885Z" fill="white"/>
<path d="M198.484 29.8483C200.239 29.8483 201.425 28.5827 201.425 26.559C201.425 24.5291 200.239 23.2697 198.484 23.2697C196.723 23.2697 195.537 24.5291 195.537 26.559C195.537 28.5827 196.723 29.8483 198.484 29.8483ZM198.484 28.9128C197.359 28.9128 196.619 28.0569 196.619 26.559C196.619 25.061 197.359 24.2051 198.484 24.2051C199.609 24.2051 200.342 25.061 200.342 26.559C200.342 28.0569 199.609 28.9128 198.484 28.9128Z" fill="white"/>
<path d="M202.501 29.7382H203.565V25.7764C203.565 24.8776 204.103 24.2846 204.928 24.2846C205.185 24.2846 205.411 24.3151 205.497 24.3457V23.3125C205.411 23.3002 205.252 23.2697 205.069 23.2697C204.323 23.2697 203.736 23.716 203.528 24.4191H203.503V23.3797H202.501V29.7382Z" fill="white"/>
<path d="M209.452 23.2697C208.529 23.2697 207.789 23.7404 207.398 24.4558H207.374V23.3797H206.365V31.8598H207.429V28.705H207.453C207.832 29.402 208.566 29.8483 209.477 29.8483C211.079 29.8483 212.173 28.5521 212.173 26.559C212.173 24.5658 211.072 23.2697 209.452 23.2697ZM209.244 28.9128C208.156 28.9128 207.422 27.9774 207.422 26.559C207.422 25.1466 208.156 24.2051 209.244 24.2051C210.375 24.2051 211.085 25.1222 211.085 26.559C211.085 28.0019 210.375 28.9128 209.244 28.9128Z" fill="white"/>
<path d="M215.884 29.8483C217.639 29.8483 218.825 28.5827 218.825 26.559C218.825 24.5291 217.639 23.2697 215.884 23.2697C214.123 23.2697 212.937 24.5291 212.937 26.559C212.937 28.5827 214.123 29.8483 215.884 29.8483ZM215.884 28.9128C214.759 28.9128 214.019 28.0569 214.019 26.559C214.019 25.061 214.759 24.2051 215.884 24.2051C217.009 24.2051 217.743 25.061 217.743 26.559C217.743 28.0569 217.009 28.9128 215.884 28.9128Z" fill="white"/>
<path d="M219.901 29.7382H220.965V25.7764C220.965 24.8776 221.503 24.2846 222.328 24.2846C222.585 24.2846 222.811 24.3151 222.897 24.3457V23.3125C222.811 23.3002 222.652 23.2697 222.469 23.2697C221.723 23.2697 221.136 23.716 220.928 24.4191H220.904V23.3797H219.901V29.7382Z" fill="white"/>
<path d="M225.501 29.8483C226.357 29.8483 227.164 29.3714 227.544 28.6438H227.568V29.7382H228.577V25.3423C228.577 24.0767 227.635 23.2697 226.143 23.2697C224.639 23.2697 223.698 24.1134 223.624 25.2139H224.652C224.786 24.5903 225.3 24.2051 226.119 24.2051C226.999 24.2051 227.513 24.6698 227.513 25.4462V25.9781L225.691 26.0821C224.224 26.1677 223.386 26.8524 223.386 27.9407C223.386 29.084 224.236 29.8483 225.501 29.8483ZM225.74 28.9434C224.976 28.9434 224.468 28.546 224.468 27.9407C224.468 27.3416 224.957 26.9625 225.813 26.9075L227.513 26.8035V27.3232C227.513 28.2403 226.743 28.9434 225.74 28.9434Z" fill="white"/>
<path d="M230.27 21.8451V23.3797H229.323V24.254H230.27V28.0875C230.27 29.3103 230.723 29.7871 231.891 29.7871C232.141 29.7871 232.435 29.7688 232.563 29.7382V28.8456C232.49 28.8578 232.245 28.8762 232.123 28.8762C231.579 28.8762 231.334 28.6133 231.334 28.0324V24.254H232.569V23.3797H231.334V21.8451H230.27Z" fill="white"/>
<path d="M234.293 22.2486C234.666 22.2486 234.96 21.949 234.96 21.5822C234.96 21.2092 234.666 20.9158 234.293 20.9158C233.926 20.9158 233.627 21.2092 233.627 21.5822C233.627 21.949 233.926 22.2486 234.293 22.2486ZM233.761 29.7382H234.825V23.3797H233.761V29.7382Z" fill="white"/>
<path d="M238.897 29.8483C240.652 29.8483 241.838 28.5827 241.838 26.559C241.838 24.5291 240.652 23.2697 238.897 23.2697C237.136 23.2697 235.95 24.5291 235.95 26.559C235.95 28.5827 237.136 29.8483 238.897 29.8483ZM238.897 28.9128C237.772 28.9128 237.032 28.0569 237.032 26.559C237.032 25.061 237.772 24.2051 238.897 24.2051C240.022 24.2051 240.756 25.061 240.756 26.559C240.756 28.0569 240.022 28.9128 238.897 28.9128Z" fill="white"/>
<path d="M242.914 29.7382H243.978V25.9965C243.978 24.9204 244.632 24.2112 245.635 24.2112C246.613 24.2112 247.096 24.7737 247.096 25.8008V29.7382H248.16V25.6113C248.16 24.1684 247.353 23.2697 245.959 23.2697C244.974 23.2697 244.296 23.7099 243.941 24.3946H243.917V23.3797H242.914V29.7382Z" fill="white"/>
</svg>
