<svg viewBox="0 0 18 18" strocke="currentColor" fill="currentColor" xmlns="http://www.w3.org/2000/svg">
<path d="M17.4729 18H7.91041C7.61913 18 7.38306 17.7639 7.38306 17.4727V16.9102C7.38306 16.3276 7.8552 15.8555 8.43775 15.8555V15.225C8.43775 14.3902 9.11698 13.7109 9.9518 13.7109H15.4315C16.2663 13.7109 16.9456 14.3902 16.9456 15.225V15.8555C17.5281 15.8555 18.0002 16.3276 18.0002 16.9102V17.4727C18.0002 17.7638 17.764 18 17.4729 18Z" />
<path d="M11.4002 11.6135C11.0498 12.0787 10.3884 12.1716 9.92327 11.821C9.458 11.4706 9.36517 10.8092 9.71563 10.3439L12.8893 6.13245C13.2399 5.66717 13.9011 5.57434 14.3663 5.9248C14.8315 6.2754 14.9245 6.93664 14.5739 7.40191L11.4002 11.6135Z" />
<path d="M3.81956 5.90104C3.46896 6.36617 2.80772 6.45915 2.34245 6.10854C1.87732 5.75808 1.78435 5.09684 2.13495 4.63157L5.30862 0.420102C5.65908 -0.0451691 6.32046 -0.138141 6.78559 0.21246C7.25073 0.563061 7.3437 1.2243 6.9931 1.68957L3.81956 5.90104Z" />
<path d="M6.13263 8.96508C5.35315 8.37773 4.76799 7.64837 4.40201 6.88043L8.09479 1.97998C8.93387 2.12019 9.79616 2.48151 10.5758 3.069C11.3553 3.65636 11.9404 4.38571 12.3064 5.15352L8.61362 10.0542C7.77454 9.91403 6.91225 9.55258 6.13263 8.96508Z" />
<path d="M4.70859 9.10205C4.95413 9.35226 5.21272 9.59218 5.49782 9.8071C5.78305 10.0219 6.08504 10.2044 6.39307 10.3715L5.70546 11.2841L4.02085 10.0147L4.70859 9.10205Z" />
<path d="M3.38619 10.8569L5.0708 12.1263L1.89713 16.3379C1.54653 16.8031 0.885287 16.896 0.420154 16.5455C-0.0451169 16.1949 -0.137951 15.5337 0.212512 15.0684L3.38619 10.8569Z" />
</svg>
