<svg viewBox="0 0 15 16" strocke="currentColor" fill="currentColor" xmlns="http://www.w3.org/2000/svg">
<path d="M14.1666 7.16661C13.8906 7.16661 13.6666 6.94261 13.6666 6.66661C13.6666 4.75192 12.9214 2.95261 11.568 1.59861C11.3727 1.4033 11.3727 1.08664 11.568 0.891327C11.7633 0.696014 12.08 0.696014 12.2754 0.891327C13.8174 2.43395 14.6666 4.48533 14.6666 6.66661C14.6666 6.94261 14.4426 7.16661 14.1666 7.16661Z" />
<path d="M0.5 7.16662C0.224 7.16662 0 6.94262 0 6.66662C0 4.48537 0.849375 2.43397 2.39197 0.891968C2.58728 0.696655 2.90406 0.696655 3.09938 0.891968C3.29469 1.08728 3.29469 1.40406 3.09938 1.59937C1.74538 2.95262 1 4.75194 1 6.66662C1 6.94262 0.776 7.16662 0.5 7.16662Z" />
<path d="M7.33337 16C5.95472 16 4.83337 14.8787 4.83337 13.5C4.83337 13.224 5.05737 13 5.33337 13C5.60937 13 5.83337 13.224 5.83337 13.5C5.83337 14.3274 6.50597 15 7.33337 15C8.16066 15 8.83337 14.3274 8.83337 13.5C8.83337 13.224 9.05737 13 9.33337 13C9.60937 13 9.83337 13.224 9.83337 13.5C9.83337 14.8787 8.71203 16 7.33337 16Z" />
<path d="M12.8334 14H1.83338C1.18994 14 0.666626 13.4767 0.666626 12.8334C0.666519 12.6649 0.702946 12.4983 0.773398 12.3452C0.84385 12.1922 0.946652 12.0562 1.07472 11.9467C2.08863 11.09 2.66663 9.84472 2.66663 8.52541V6.66663C2.66663 4.09337 4.76 2 7.33338 2C9.90663 2 12 4.09337 12 6.66663V8.52538C12 9.84475 12.578 11.09 13.5853 11.942C13.8513 12.1687 14 12.4919 14 12.8334C14 13.4767 13.4767 14 12.8334 14ZM7.33338 3C5.31128 3 3.66663 4.64466 3.66663 6.66663V8.52538C3.66663 10.1393 2.95934 11.6633 1.72669 12.7053C1.70338 12.7253 1.66663 12.7667 1.66663 12.8334C1.66663 12.9239 1.74269 13 1.83338 13H12.8334C12.9239 13 13 12.9239 13 12.8334C13 12.7667 12.9634 12.7253 12.9413 12.7067C11.7073 11.6633 11 10.1393 11 8.52541V6.66663C11 4.64466 9.35534 3 7.33338 3Z" />
<path d="M7.33337 3C7.05737 3 6.83337 2.776 6.83337 2.5V0.5C6.83337 0.224 7.05737 0 7.33337 0C7.60937 0 7.83337 0.224 7.83337 0.5V2.5C7.83337 2.776 7.60937 3 7.33337 3Z" />
</svg>
