<svg viewBox="0 0 16 16" strocke="currentColor" fill="currentColor" xmlns="http://www.w3.org/2000/svg">
<path d="M0.468748 16.0001H8.96909C9.22799 16.0001 9.43784 15.7902 9.43784 15.5313V14.5314C9.43784 13.9203 9.04587 13.3992 8.50034 13.2057V12.5957C8.50034 11.8537 7.89659 11.25 7.1545 11.25H2.2833C1.54124 11.25 0.937496 11.8537 0.937496 12.5957V13.2057C0.391967 13.3991 0 13.9202 0 14.5314V15.5313C0 15.7902 0.209843 16.0001 0.468748 16.0001ZM2.2833 12.1875H7.15453C7.3796 12.1875 7.56285 12.3706 7.56285 12.5957V13.1251H1.87512V12.5957C1.87512 12.3706 2.05824 12.1875 2.2833 12.1875ZM0.937496 14.5314C0.937496 14.2728 1.14781 14.0626 1.40624 14.0626H8.03147C8.29 14.0626 8.50034 14.2728 8.50034 14.5314V15.0626H0.937496V14.5314Z" />
<path d="M5.39966 9.75867C5.86459 10.3762 6.74765 10.5042 7.369 10.0364C7.78281 9.72486 7.97531 9.22733 7.9189 8.74662C8.31753 8.6788 8.70752 8.56746 9.08186 8.41459L13.4708 14.244C13.9358 14.8619 14.819 14.9892 15.4401 14.5217C16.0595 14.0553 16.1841 13.1719 15.7177 12.5523L11.3289 6.72297C11.5792 6.40552 11.7939 6.06163 11.9693 5.69744C12.4211 5.88691 12.9517 5.83332 13.3609 5.52522C13.9804 5.05879 14.105 4.17536 13.6386 3.55586L11.383 0.559906C10.9166 -0.0595914 10.0331 -0.184122 9.41364 0.282313C8.99983 0.593843 8.80733 1.09128 8.86374 1.57199C7.09737 1.8729 5.59141 3.00655 4.81357 4.62067C4.36263 4.4316 3.83432 4.48285 3.42173 4.79342C2.80076 5.26091 2.67648 6.14178 3.14401 6.76278L5.39966 9.75867ZM10.6775 7.4164L11.3034 8.24784L10.5544 8.81168L9.92842 7.98037C10.1936 7.81396 10.4442 7.62529 10.6775 7.4164ZM14.8762 13.7727C14.6696 13.9282 14.3752 13.8867 14.2197 13.6802L11.1182 9.56067L11.8673 8.99683L14.9687 13.1162C15.1242 13.3227 15.0826 13.6172 14.8762 13.7727ZM9.97758 1.03131C10.1848 0.87531 10.479 0.918029 10.6341 1.12381L12.8896 4.11979C13.0451 4.3262 13.0036 4.62076 12.797 4.77617C12.5901 4.93204 12.2965 4.89067 12.1407 4.68363L9.88505 1.68768C9.72955 1.48112 9.77105 1.18672 9.97758 1.03131ZM9.29164 2.45818C9.49467 2.72796 11.0296 4.76676 11.236 5.04082C10.9226 5.80385 10.4094 6.46837 9.75044 6.96451C9.09145 7.46066 8.31096 7.77012 7.49103 7.86037L5.54669 5.27763C6.18719 3.72061 7.61824 2.64336 9.29167 2.45818H9.29164ZM3.98573 5.54241C4.19213 5.38691 4.48598 5.42757 4.6421 5.63494L6.89772 8.6309V8.63102C7.05309 8.83746 7.01159 9.1319 6.80518 9.28739C6.59862 9.4428 6.30419 9.4013 6.14869 9.19489L3.89307 6.19891C3.73732 5.99188 3.7787 5.69829 3.98573 5.54241Z" />
</svg>
