<svg viewBox="0 0 12 12" fill="currentColor" xmlns="http://www.w3.org/2000/svg">
<path d="M6.6001 3.6001H7.80014V8.4001H6.6001V3.6001Z" />
<path d="M4.2002 3.6001H5.4002V8.4001H4.2002V3.6001Z" />
<path d="M5.99999 0C2.68501 0 0 2.68501 0 5.99999C0 9.31496 2.68501 12 5.99999 12C9.31496 12 12 9.31499 12 5.99999C12 2.68498 9.31499 0 5.99999 0ZM5.99999 10.8C3.35399 10.8 1.19998 8.64598 1.19998 5.99999C1.19998 3.35399 3.35399 1.20001 5.99999 1.20001C8.64598 1.20001 10.8 3.35399 10.8 5.99999C10.8 8.64598 8.64598 10.8 5.99999 10.8Z" />
</svg>
