<svg viewBox="0 0 12 12" fill="currentColor" xmlns="http://www.w3.org/2000/svg">
<path d="M9.90816 0.103305C9.77074 -0.0341094 9.54834 -0.0341094 9.41093 0.103305L8.16797 1.34627L10.6539 3.83219L11.8969 2.58923C12.0343 2.45181 12.0343 2.22946 11.8969 2.09205L9.90816 0.103305Z" />
<path d="M1.34619 8.16796L3.83216 10.6539L10.1571 4.32899L7.67115 1.84302L1.34619 8.16796ZM8.41693 3.58321C8.55435 3.72062 8.55435 3.94297 8.41693 4.08038L3.58354 8.91376C3.44612 9.05117 3.22377 9.05117 3.08636 8.91376C2.94894 8.77635 2.94894 8.55399 3.08636 8.41658L7.91975 3.58321C8.05719 3.44579 8.27952 3.44579 8.41693 3.58321Z" />
<path d="M0.9437 8.76025L0.0180128 11.5373C-0.0026131 11.5992 -0.00559006 11.6657 0.00941521 11.7292C0.0244205 11.7928 0.0568156 11.8509 0.102974 11.897C0.14915 11.9432 0.207267 11.9756 0.270816 11.9906C0.334365 12.0056 0.400836 12.0026 0.462786 11.982L3.2398 11.0564L0.9437 8.76025Z" />
</svg>
