<svg viewBox="0 0 12 12" fill="currentColor" strocke="currentColor"  xmlns="http://www.w3.org/2000/svg">
<path d="M8.83675 0.0744304C8.50025 -0.0967604 8.08864 0.0373755 7.91749 0.374014L2.83281 10.3748C2.66166 10.7114 2.7958 11.1229 3.13239 11.2941C3.22817 11.3429 3.33416 11.3684 3.44169 11.3685C3.69082 11.3685 3.93097 11.2318 4.05166 10.9945L9.13634 0.993692C9.30748 0.657099 9.17335 0.245576 8.83675 0.0744304Z" />
<path d="M5.18577 3.36784C5.18577 1.9381 4.02258 0.774902 2.59284 0.774902C1.1632 0.774902 0 1.9381 0 3.36784C0 4.79753 1.1632 5.96072 2.59289 5.96072C4.02262 5.96072 5.18577 4.79753 5.18577 3.36784ZM2.59289 4.59338C1.91715 4.59338 1.36734 4.04358 1.36734 3.36784C1.36734 2.69205 1.91715 2.14224 2.59289 2.14224C3.26867 2.14224 3.81848 2.69201 3.81848 3.36784C3.81843 4.04358 3.26867 4.59338 2.59289 4.59338Z" />
<path d="M9.40711 5.40771C7.97737 5.40771 6.81418 6.57091 6.81418 8.0006C6.81418 9.43029 7.97733 10.5935 9.40711 10.5935C10.8368 10.5935 12 9.43034 12 8.0006C12 6.57086 10.8368 5.40771 9.40711 5.40771ZM9.40711 9.2261C8.73133 9.2261 8.18152 8.6763 8.18152 8.00056C8.18152 7.32482 8.73133 6.77501 9.40711 6.77501C10.0828 6.77501 10.6327 7.32482 10.6327 8.00056C10.6327 8.6763 10.0829 9.2261 9.40711 9.2261Z" />
</svg>
