<svg viewBox="0 0 16 16" stroke="currentColor" xmlns="http://www.w3.org/2000/svg">
<path d="M12.1643 10.5841C11.6416 10.068 10.989 10.068 10.4696 10.5841C10.0734 10.9769 9.67723 11.3698 9.28768 11.7694C9.18114 11.8792 9.09125 11.9025 8.9614 11.8293C8.70503 11.6894 8.43202 11.5762 8.18564 11.4231C7.03698 10.7006 6.07477 9.77169 5.22243 8.72624C4.79959 8.20685 4.42336 7.65083 4.16033 7.02489C4.10706 6.89838 4.11705 6.81514 4.22026 6.71193C4.61647 6.32904 5.00268 5.93617 5.39223 5.54329C5.93493 4.99726 5.93493 4.35801 5.3889 3.80865C5.07926 3.49568 4.76962 3.18937 4.45998 2.87641C4.14036 2.55678 3.82406 2.23382 3.5011 1.91753C2.97838 1.40812 2.32581 1.40812 1.80641 1.92086C1.40688 2.31373 1.02399 2.71659 0.617799 3.10281C0.241571 3.45906 0.0517927 3.89522 0.0118394 4.40462C-0.0514202 5.23365 0.151676 6.01607 0.438009 6.77852C1.02399 8.35667 1.91628 9.75837 2.99835 11.0435C4.45998 12.7815 6.20461 14.1566 8.24557 15.1487C9.16449 15.5949 10.1167 15.9378 11.1522 15.9944C11.8647 16.0344 12.484 15.8546 12.98 15.2986C13.3196 14.919 13.7025 14.5727 14.0621 14.2098C14.5948 13.6705 14.5982 13.0179 14.0688 12.4852C13.4362 11.8493 12.8003 11.2167 12.1643 10.5841Z"/>
<path d="M11.5283 7.93077L12.7569 7.72101C12.5638 6.59233 12.0311 5.57019 11.222 4.7578C10.3663 3.90213 9.28426 3.36276 8.09232 3.19629L7.91919 4.43151C8.84145 4.56136 9.68047 4.97754 10.343 5.6401C10.969 6.26604 11.3785 7.05845 11.5283 7.93077Z" />
<path d="M13.4493 2.59031C12.031 1.17197 10.2364 0.276344 8.25541 0L8.08228 1.23523C9.79361 1.47495 11.3451 2.25071 12.5704 3.47262C13.7323 4.63459 14.4948 6.10288 14.7711 7.71766L15.9997 7.50791C15.6767 5.63676 14.7944 3.93874 13.4493 2.59031Z" />
</svg>
