<svg viewBox="0 0 12 15" fill="currentColor" strocke="currentColor" xmlns="http://www.w3.org/2000/svg">
<path d="M2.44922 13.0566H5.66016C5.34961 12.793 5.08594 12.4766 4.89258 12.1133H2.50195C1.89844 12.1133 1.57617 11.8027 1.57617 11.2168V2.35156C1.57617 1.77148 1.89258 1.4375 2.50195 1.4375H8.625C9.21094 1.4375 9.54492 1.76562 9.54492 2.35156V7.46094C9.9082 7.6543 10.2246 7.91211 10.4883 8.22266V2.33398C10.4883 1.10938 9.88477 0.494141 8.67188 0.494141H2.44922C1.24219 0.494141 0.632812 1.11523 0.632812 2.33398V11.2227C0.632812 12.4473 1.24219 13.0566 2.44922 13.0566ZM3.3457 3.82812H7.78711C7.99219 3.82812 8.15039 3.66406 8.15039 3.45898C8.15039 3.25977 7.99219 3.10742 7.78711 3.10742H3.3457C3.12891 3.10742 2.97656 3.25977 2.97656 3.45898C2.97656 3.66406 3.12891 3.82812 3.3457 3.82812ZM3.3457 5.87305H7.78711C7.99219 5.87305 8.15039 5.70898 8.15039 5.50391C8.15039 5.30469 7.99219 5.15234 7.78711 5.15234H3.3457C3.12891 5.15234 2.97656 5.30469 2.97656 5.50391C2.97656 5.70898 3.12891 5.87305 3.3457 5.87305ZM7.85742 13.0566C8.38477 13.0566 8.88281 12.9043 9.29297 12.6289L10.6113 13.9531C10.752 14.0879 10.8809 14.1406 11.0391 14.1406C11.3086 14.1406 11.5137 13.9297 11.5137 13.6309C11.5137 13.502 11.4492 13.373 11.3496 13.2734L10.0137 11.9375C10.3125 11.5098 10.4883 10.9883 10.4883 10.4258C10.4883 8.9668 9.31055 7.78906 7.85742 7.78906C6.4043 7.78906 5.21484 8.97852 5.21484 10.4258C5.21484 11.8789 6.4043 13.0566 7.85742 13.0566ZM7.85742 12.2188C6.86133 12.2188 6.05273 11.416 6.05273 10.4258C6.05273 9.44727 6.86133 8.63281 7.85742 8.63281C8.83594 8.63281 9.64453 9.44727 9.64453 10.4258C9.64453 11.416 8.8418 12.2188 7.85742 12.2188Z"/>
</svg>
