<svg viewBox="0 0 8 10" fill="currentColor" strocke="currentColor" xmlns="http://www.w3.org/2000/svg">
<path d="M3.89889 9.99994C4.45676 9.99994 4.909 9.59293 4.909 9.09085C4.909 8.58878 4.45676 8.18176 3.89889 8.18176C3.34103 8.18176 2.88879 8.58878 2.88879 9.09085C2.88879 9.59293 3.34103 9.99994 3.89889 9.99994Z" />
<path d="M3.89895 0C2.11665 0 0.666626 1.30502 0.666626 2.90909C0.666626 3.31076 1.0284 3.63636 1.47471 3.63636C1.92101 3.63636 2.28279 3.31076 2.28279 2.90909C2.28279 2.10705 3.0078 1.45455 3.89895 1.45455C4.7901 1.45455 5.51511 2.10705 5.51511 2.90909C5.51511 3.71113 4.7901 4.36364 3.89895 4.36364C3.45265 4.36364 3.09087 4.68924 3.09087 5.09091V6.90909C3.09087 7.31076 3.45265 7.63636 3.89895 7.63636C4.34525 7.63636 4.70703 7.31076 4.70703 6.90909V5.72615C6.0996 5.4024 7.13127 4.26215 7.13127 2.90909C7.13127 1.30502 5.68125 0 3.89895 0Z" />
</svg>
