<svg viewBox="0 0 11 16" strocke="currentColor" fill="currentColor" xmlns="http://www.w3.org/2000/svg">
<path d="M9.84372 6.59376H5.962L9.31372 0.700439C9.35425 0.629134 9.37537 0.548444 9.37496 0.466427C9.37455 0.384409 9.35264 0.303933 9.31141 0.233032C9.27017 0.162128 9.21104 0.103289 9.13994 0.0623963C9.06884 0.0215031 8.98825 -1.23857e-05 8.90622 5.34907e-09H3.28121C3.18274 1.1238e-05 3.08678 0.0310296 3.00694 0.0886542C2.9271 0.146279 2.86743 0.227583 2.8364 0.321032L0.0238912 8.78971C0.000496824 8.86015 -0.00583467 8.93515 0.00541771 9.00852C0.0166701 9.08189 0.0451847 9.15155 0.088615 9.21175C0.132045 9.27194 0.18915 9.32097 0.255229 9.35479C0.321309 9.38861 0.394474 9.40625 0.468705 9.40627H4.44662L1.91255 15.3473C1.86885 15.4497 1.86302 15.5643 1.8961 15.6706C1.92918 15.7769 1.999 15.8679 2.09308 15.9274C2.18716 15.9869 2.29934 16.011 2.40955 15.9954C2.51976 15.9797 2.62082 15.9254 2.69465 15.8421L10.1947 7.37333C10.4618 7.07155 10.2472 6.59376 9.84372 6.59376ZM3.90865 13.0573L5.58737 9.12149C5.71893 8.81289 5.49237 8.46877 5.15621 8.46877H1.11824L3.61949 0.937502H8.10028L4.74871 6.8307C4.57149 7.14236 4.79671 7.53127 5.15621 7.53127H8.80247L3.90865 13.0573Z" />
</svg>
