<svg width="12" height="12" viewBox="0 0 12 12" strocke="currentColor" fill="currentColor" xmlns="http://www.w3.org/2000/svg">
<path d="M6.00006 6.93421C6.51342 6.93421 6.92957 6.51806 6.92957 6.0047C6.92957 5.49135 6.51342 5.0752 6.00006 5.0752C5.48671 5.0752 5.07056 5.49135 5.07056 6.0047C5.07056 6.51806 5.48671 6.93421 6.00006 6.93421Z" />
<path d="M8.78864 6.93421C9.30199 6.93421 9.71815 6.51806 9.71815 6.0047C9.71815 5.49135 9.30199 5.0752 8.78864 5.0752C8.27529 5.0752 7.85913 5.49135 7.85913 6.0047C7.85913 6.51806 8.27529 6.93421 8.78864 6.93421Z" />
<path d="M3.21137 6.93421C3.72472 6.93421 4.14088 6.51806 4.14088 6.0047C4.14088 5.49135 3.72472 5.0752 3.21137 5.0752C2.69802 5.0752 2.28186 5.49135 2.28186 6.0047C2.28186 6.51806 2.69802 6.93421 3.21137 6.93421Z" />
<path d="M6 0C2.6914 0 0 2.6914 0 6C0 9.3086 2.6914 12 6 12C9.3086 12 12 9.30813 12 6C12 2.69187 9.3086 0 6 0ZM6 11.0705C3.20449 11.0705 0.929508 8.79598 0.929508 6C0.929508 3.20402 3.20449 0.929508 6 0.929508C8.79598 0.929508 11.0705 3.20402 11.0705 6C11.0705 8.79598 8.79551 11.0705 6 11.0705Z" />
</svg>
