<svg viewBox="0 0 16 16" strocke="currentColor" fill="currentColor" xmlns="http://www.w3.org/2000/svg">
<path d="M8.00003 4.17532C5.89116 4.17532 4.17535 5.89113 4.17535 8C4.17535 10.1089 5.89113 11.8247 8.00003 11.8247C10.1089 11.8247 11.8247 10.1089 11.8247 8C11.8247 5.8911 10.1089 4.17532 8.00003 4.17532ZM8.00003 10.8685C6.41838 10.8685 5.13151 9.58166 5.13151 8C5.13151 6.41835 6.41838 5.13148 8.00003 5.13148C9.58169 5.13148 10.8686 6.41835 10.8686 8C10.8686 9.58166 9.58169 10.8685 8.00003 10.8685Z" />
<path d="M15.6235 6.17822L14.3938 5.91087C14.2867 5.58304 14.1544 5.26397 13.9981 4.95653L14.6788 3.89759C14.7378 3.80577 14.7637 3.69653 14.752 3.58801C14.7403 3.47949 14.6919 3.37822 14.6147 3.30103L12.699 1.38525C12.6218 1.30809 12.5205 1.25967 12.412 1.24801C12.3035 1.23636 12.1942 1.26218 12.1024 1.32119L11.0435 2.00197C10.736 1.84565 10.4169 1.71332 10.0891 1.60619L9.82178 0.376469C9.79859 0.269812 9.73959 0.174304 9.6546 0.105817C9.56961 0.0373308 9.46374 -1.01869e-05 9.35459 2.0846e-09H6.64537C6.53623 -3.05194e-06 6.43037 0.0373412 6.34539 0.105827C6.2604 0.174313 6.20141 0.269817 6.17822 0.376469L5.91087 1.60619C5.58304 1.71332 5.26397 1.84563 4.95653 2.00194L3.89759 1.32116C3.80577 1.26215 3.69653 1.23634 3.58801 1.248C3.47949 1.25966 3.37822 1.30809 3.30103 1.38525L1.38525 3.30103C1.30809 3.37823 1.25967 3.4795 1.24801 3.58802C1.23636 3.69653 1.26218 3.80578 1.32119 3.89759L2.00197 4.95653C1.84565 5.26398 1.71332 5.58306 1.60619 5.91091L0.376469 6.17822C0.26982 6.20143 0.174322 6.26043 0.105838 6.34542C0.0373544 6.4304 7.05789e-06 6.53626 0 6.64541L0 9.35462C1.41906e-05 9.46377 0.0373648 9.56962 0.105848 9.6546C0.174331 9.73958 0.269825 9.79857 0.376469 9.82178L1.60619 10.0891C1.71333 10.417 1.84565 10.736 2.00197 11.0435L1.32116 12.1024C1.26215 12.1942 1.23634 12.3035 1.248 12.412C1.25966 12.5205 1.30809 12.6218 1.38525 12.699L3.30103 14.6147C3.37823 14.6919 3.4795 14.7403 3.58802 14.752C3.69653 14.7636 3.80578 14.7378 3.89759 14.6788L4.95653 13.998C5.26398 14.1544 5.58306 14.2867 5.91091 14.3938L6.17822 15.6235C6.20141 15.7302 6.26041 15.8257 6.3454 15.8942C6.43039 15.9627 6.53626 16 6.64541 16H9.35462C9.46377 16 9.56963 15.9627 9.65461 15.8942C9.7396 15.8257 9.79859 15.7302 9.82178 15.6235L10.0891 14.3938C10.417 14.2867 10.736 14.1544 11.0435 13.998L12.1024 14.6788C12.1942 14.7379 12.3035 14.7637 12.412 14.752C12.5205 14.7404 12.6218 14.6919 12.699 14.6147L14.6147 12.699C14.6919 12.6218 14.7403 12.5205 14.752 12.412C14.7636 12.3035 14.7378 12.1942 14.6788 12.1024L13.9981 11.0435C14.1544 10.736 14.2867 10.4169 14.3938 10.0891L15.6235 9.82178C15.7302 9.79857 15.8257 9.73957 15.8942 9.65458C15.9626 9.5696 16 9.46374 16 9.35459V6.64537C16 6.53623 15.9626 6.43038 15.8942 6.3454C15.8257 6.26042 15.7302 6.20143 15.6235 6.17822ZM15.0438 8.96925L13.9163 9.21434C13.8313 9.23284 13.7529 9.27415 13.6897 9.33384C13.6264 9.39353 13.5806 9.46933 13.5573 9.55309C13.4329 9.99873 13.255 10.4277 13.0276 10.8306C12.9848 10.9064 12.9635 10.9924 12.966 11.0793C12.9685 11.1663 12.9947 11.2509 13.0417 11.3241L13.6661 12.2953L12.2954 13.6661L11.3241 13.0417C11.2509 12.9947 11.1663 12.9685 11.0794 12.966C10.9924 12.9635 10.9064 12.9848 10.8307 13.0276C10.4277 13.255 9.99875 13.4328 9.55309 13.5573C9.46933 13.5806 9.39353 13.6264 9.33384 13.6897C9.27415 13.7529 9.23284 13.8313 9.21434 13.9163L8.96925 15.0438H7.03075L6.78566 13.9163C6.76716 13.8313 6.72585 13.7529 6.66616 13.6897C6.60648 13.6264 6.53067 13.5806 6.44691 13.5573C6.00127 13.4329 5.57232 13.255 5.16941 13.0276C5.09364 12.9848 5.00764 12.9635 4.92068 12.966C4.83372 12.9685 4.74909 12.9947 4.67591 13.0417L3.70472 13.6661L2.33397 12.2953L2.95825 11.3241C3.00533 11.2509 3.03154 11.1663 3.03406 11.0793C3.03657 10.9923 3.0153 10.9063 2.97253 10.8306C2.74512 10.4276 2.56724 9.99872 2.44275 9.55313C2.41938 9.46937 2.37362 9.39357 2.31039 9.33388C2.24715 9.27419 2.16884 9.23287 2.08387 9.21437L0.956187 8.96928V7.03078L2.08375 6.78569C2.16873 6.76719 2.24706 6.72588 2.31032 6.66619C2.37357 6.60651 2.41936 6.5307 2.44275 6.44694C2.56715 6.0013 2.745 5.57235 2.97244 5.16944C3.01521 5.09368 3.0365 5.00768 3.034 4.92071C3.0315 4.83375 3.00531 4.74911 2.95825 4.67594L2.33387 3.70475L3.70459 2.33391L4.67591 2.95828C4.74907 3.00534 4.83369 3.03153 4.92064 3.03402C5.00759 3.03652 5.09357 3.01522 5.16931 2.97244C5.57227 2.74503 6.00125 2.56719 6.44691 2.44278C6.53067 2.41939 6.60648 2.3736 6.66616 2.31035C6.72585 2.24709 6.76716 2.16876 6.78566 2.08378L7.03075 0.956219H8.96925L9.21434 2.08378C9.23284 2.16876 9.27415 2.24709 9.33384 2.31035C9.39353 2.3736 9.46933 2.41939 9.55309 2.44278C9.99873 2.56718 10.4277 2.74503 10.8306 2.97247C10.9064 3.01522 10.9924 3.03648 11.0793 3.03398C11.1663 3.03148 11.2509 3.00531 11.3241 2.95828L12.2953 2.33391L13.666 3.70475L13.0417 4.67594C12.9947 4.74911 12.9685 4.83374 12.9659 4.92072C12.9634 5.00769 12.9847 5.0937 13.0275 5.16947C13.2549 5.57237 13.4328 6.00131 13.5573 6.44694C13.5806 6.5307 13.6264 6.6065 13.6896 6.66618C13.7528 6.72587 13.8312 6.76719 13.9161 6.78569L15.0438 7.03078L15.0438 8.96925Z" />
</svg>
