<svg viewBox="0 0 12 12" fill="currentColor" strocke="currentColor" xmlns="http://www.w3.org/2000/svg">
<path d="M6 0C2.68628 0 0 2.68628 0 6C0 9.31372 2.68628 12 6 12C9.31372 12 12 9.31372 12 6C12 2.68628 9.31372 0 6 0ZM6 10.6667C3.42266 10.6667 1.33334 8.57731 1.33334 6C1.33334 3.42269 3.42266 1.33334 6 1.33334C8.57734 1.33334 10.6667 3.42266 10.6667 6C10.6667 8.57734 8.57734 10.6667 6 10.6667Z" />
<path d="M6.66669 5.76316V2.66797H5.33337V6.32378L7.5337 8.47772L8.46639 7.52491L6.66669 5.76316Z" />
</svg>
