<svg viewBox="0 0 11 12" strocke="currentColor" fill="currentColor" xmlns="http://www.w3.org/2000/svg">
<path d="M10.9298 2.07022C10.883 2.02345 10.8231 1.99995 10.7502 1.99995H8.33606L7.78918 0.695326C7.71109 0.502572 7.57043 0.338496 7.36742 0.20307C7.16421 0.0676719 6.95838 0 6.75011 0H4.25003C4.04176 0 3.83598 0.0676719 3.63285 0.20307C3.4297 0.338496 3.28908 0.502545 3.21092 0.695326L2.66405 1.99995H0.249973C0.176992 1.99995 0.117174 2.02345 0.0702715 2.07022C0.0235059 2.11709 0 2.17702 0 2.24992V2.74997C0 2.82287 0.0233965 2.8828 0.0702715 2.92959C0.117174 2.97644 0.177102 2.99986 0.249973 2.99986H0.999918V10.4375C0.999918 10.8699 1.12232 11.2383 1.36709 11.5429C1.61192 11.8477 1.9062 12 2.24997 12H8.75014C9.094 12 9.38824 11.8425 9.63304 11.5275C9.87782 11.2122 10.0001 10.8386 10.0001 10.4063V2.99986H10.7502C10.8231 2.99986 10.883 2.97644 10.9298 2.92959C10.9765 2.88283 11.0001 2.82287 11.0001 2.74997V2.24992C11.0002 2.17702 10.9766 2.11709 10.9298 2.07022ZM4.13288 1.08576C4.1693 1.03891 4.21361 1.01018 4.26568 0.999836H6.74226C6.79433 1.01026 6.83871 1.03897 6.87508 1.08576L7.25022 1.99984H3.75005L4.13288 1.08576ZM9.00022 10.4064C9.00022 10.5209 8.98205 10.6264 8.94552 10.7227C8.90901 10.819 8.87117 10.8893 8.8322 10.9336C8.79304 10.978 8.7659 11 8.75016 11H2.25C2.23437 11 2.20717 10.978 2.16802 10.9336C2.12891 10.8893 2.09112 10.819 2.05465 10.7227C2.01822 10.6264 2 10.5208 2 10.4064V2.99986H9.00019V10.4064H9.00022Z" />
<path d="M3.25009 9.50008H3.75007C3.82305 9.50008 3.883 9.47668 3.92977 9.42984C3.97653 9.38283 4.00004 9.32309 4.00004 9.25005V4.74989C4.00004 4.67702 3.97653 4.61709 3.92977 4.57019C3.88287 4.52342 3.82308 4.5 3.75007 4.5H3.25009C3.17711 4.5 3.11727 4.5234 3.07039 4.57019C3.02357 4.61709 3.00012 4.67702 3.00012 4.74989V9.25005C3.00012 9.32309 3.02349 9.38285 3.07039 9.42984C3.11727 9.47666 3.17711 9.50008 3.25009 9.50008Z" />
<path d="M5.25009 9.50008H5.75007C5.82302 9.50008 5.88295 9.47668 5.92969 9.42984C5.9767 9.38283 5.99999 9.32309 5.99999 9.25005V4.74989C5.99999 4.67702 5.97667 4.61709 5.92969 4.57019C5.88295 4.52342 5.82302 4.5 5.75007 4.5H5.25009C5.1772 4.5 5.11727 4.5234 5.07039 4.57019C5.02349 4.61709 5.00012 4.67702 5.00012 4.74989V9.25005C5.00012 9.32309 5.02349 9.38285 5.07039 9.42984C5.11724 9.47666 5.1772 9.50008 5.25009 9.50008Z" />
<path d="M7.25015 9.50008H7.75004C7.82308 9.50008 7.883 9.47668 7.92982 9.42984C7.97664 9.38283 7.99993 9.32309 7.99993 9.25005V4.74989C7.99993 4.67702 7.97662 4.61709 7.92982 4.57019C7.883 4.52342 7.82308 4.5 7.75004 4.5H7.25015C7.17709 4.5 7.11735 4.5234 7.07034 4.57019C7.02352 4.61709 7.00012 4.67702 7.00012 4.74989V9.25005C7.00012 9.32309 7.02352 9.38285 7.07034 9.42984C7.11735 9.47666 7.17709 9.50008 7.25015 9.50008Z" />
</svg>
