<svg viewBox="0 0 24 24" strocke="currentColor" fill="currentColor" xmlns="http://www.w3.org/2000/svg">
<path fill-rule="evenodd" clip-rule="evenodd" d="M15 8.625H5.25C4.62868 8.625 4.125 9.12868 4.125 9.75V18.75C4.125 19.3713 4.62868 19.875 5.25 19.875H15C15.6213 19.875 16.125 19.3713 16.125 18.75V9.75C16.125 9.12868 15.6213 8.625 15 8.625ZM5.25 7.5C4.00736 7.5 3 8.50736 3 9.75V18.75C3 19.9926 4.00736 21 5.25 21H15C16.2426 21 17.25 19.9926 17.25 18.75V9.75C17.25 8.50736 16.2426 7.5 15 7.5H5.25Z" />
<path d="M9 4.125H18.75C19.3713 4.125 19.875 4.62868 19.875 5.25V14.25C19.875 14.8713 19.3713 15.375 18.75 15.375H17.25V16.5H18.75C19.9926 16.5 21 15.4926 21 14.25V5.25C21 4.00736 19.9926 3 18.75 3H9C7.75736 3 6.75 4.00736 6.75 5.25V7.5H7.875V5.25C7.875 4.62868 8.37868 4.125 9 4.125Z" />
<path d="M10.6648 13.8977C10.4451 13.6781 10.4451 13.3219 10.6648 13.1023L13.0512 10.7158C13.2709 10.4961 13.6271 10.4961 13.8467 10.7158C14.0664 10.9354 14.0664 11.2916 13.8467 11.5113L11.4602 13.8977C11.2406 14.1174 10.8844 14.1174 10.6648 13.8977Z" />
<path d="M10.642 10.3125C10.642 10.0018 10.8938 9.75 11.2045 9.75H14.2045C14.5152 9.75 14.767 10.0018 14.767 10.3125C14.767 10.6232 14.5152 10.875 14.2045 10.875H11.2045C10.8938 10.875 10.642 10.6232 10.642 10.3125Z" />
<path d="M14.2045 9.75C14.5152 9.75 14.767 10.0018 14.767 10.3125V13.3125C14.767 13.6232 14.5152 13.875 14.2045 13.875C13.8938 13.875 13.642 13.6232 13.642 13.3125V10.3125C13.642 10.0018 13.8938 9.75 14.2045 9.75Z" />
<path d="M9.35234 14.7898C9.57201 15.0094 9.57201 15.3656 9.35234 15.5852L6.96585 17.9717C6.74618 18.1914 6.39003 18.1914 6.17036 17.9717C5.95069 17.7521 5.95069 17.3959 6.17036 17.1762L8.55684 14.7898C8.77651 14.5701 9.13267 14.5701 9.35234 14.7898Z" />
<path d="M9.37508 18.375C9.37508 18.6857 9.12325 18.9375 8.81258 18.9375H5.81258C5.50192 18.9375 5.25008 18.6857 5.25008 18.375C5.25008 18.0643 5.50192 17.8125 5.81258 17.8125H8.81258C9.12325 17.8125 9.37508 18.0643 9.37508 18.375Z" />
<path d="M5.81258 18.9375C5.50192 18.9375 5.25008 18.6857 5.25008 18.375V15.375C5.25008 15.0643 5.50192 14.8125 5.81259 14.8125C6.12325 14.8125 6.37508 15.0643 6.37508 15.375V18.375C6.37508 18.6857 6.12325 18.9375 5.81258 18.9375Z" />
</svg>
